<svg width="258" height="288" viewBox="0 0 258 288" fill="none" xmlns="http://www.w3.org/2000/svg">
<g clip-path="url(#clip0_2869_2261)">
<path d="M141.076 179.62V145.039L111.135 127.755L81.1816 145.039V179.62L111.135 196.904L141.076 179.62Z" fill="white"/>
<path d="M54.8324 175.191H24.4976V212.749L98.9079 255.719V220.277L54.8324 194.837V175.191Z" fill="white"/>
<path d="M54.8324 129.822L98.9079 104.381V70.2314L24.4976 113.19V150.747H54.8324V129.822Z" fill="white"/>
<path d="M123.35 0.922852V41.7282L222.031 98.6983V138.532H196.936V113.19L123.35 70.7115V104.382L167.426 129.822V194.838L123.35 220.278V255.24L196.936 212.749V187.419H222.031V227.241L123.35 284.223V325.176L257.422 247.76V78.3386L123.35 0.922852Z" fill="white"/>
<path d="M-0.609287 227.24V175.191H-36V247.76L98.9079 325.655V284.702L-0.609287 227.24Z" fill="white"/>
<path d="M-0.609287 98.698L98.9079 41.2482V0.442871L-36 78.3384V150.747H-0.609287V98.698Z" fill="white"/>
</g>
<defs>
<clipPath id="clip0_2869_2261">
<rect width="294" height="326" fill="white" transform="translate(-36)"/>
</clipPath>
</defs>
</svg>
