<svg width="20" height="20" viewBox="0 0 20 20" fill="none" xmlns="http://www.w3.org/2000/svg">
<path d="M16.75 13.875H19V9.143L16.75 7.85734L14.4999 4L11.5 4V10.4287H1V14H3.25" stroke="#005EAB" stroke-width="1.5" stroke-miterlimit="10" stroke-linecap="round" stroke-linejoin="round"/>
<path d="M7.00006 14L13.0001 14" stroke="#005EAB" stroke-width="1.5" stroke-miterlimit="10" stroke-linecap="round" stroke-linejoin="round"/>
<path d="M4.87502 16.75C5.91057 16.75 6.75004 15.9106 6.75004 14.875C6.75004 13.8395 5.91057 13 4.87502 13C3.83948 13 3 13.8395 3 14.875C3 15.9106 3.83948 16.75 4.87502 16.75Z" stroke="#005EAB" stroke-width="1.5" stroke-miterlimit="10" stroke-linecap="round" stroke-linejoin="round"/>
<path d="M14.875 16.75C15.9105 16.75 16.75 15.9105 16.75 14.875C16.75 13.8395 15.9105 13 14.875 13C13.8395 13 13 13.8395 13 14.875C13 15.9105 13.8395 16.75 14.875 16.75Z" stroke="#005EAB" stroke-width="1.5" stroke-miterlimit="10" stroke-linecap="round" stroke-linejoin="round"/>
<path d="M12 8H17" stroke="#005EAB" stroke-width="1.5" stroke-miterlimit="10" stroke-linecap="round" stroke-linejoin="round"/>
<path d="M9 10V3H12V4.16661" stroke="#005EAB" stroke-width="1.5" stroke-miterlimit="10" stroke-linecap="round" stroke-linejoin="round"/>
<path d="M9 8.4998C9 7.67146 8.32845 7 7.5 7C6.67155 7 6 7.67146 6 8.4998V10" stroke="#005EAB" stroke-width="1.5" stroke-miterlimit="10" stroke-linecap="round" stroke-linejoin="round"/>
<path d="M16 10L19 10" stroke="#005EAB" stroke-width="1.5" stroke-miterlimit="10" stroke-linecap="round" stroke-linejoin="round"/>
</svg>
