<svg width="20" height="20" viewBox="0 0 20 20" fill="none" xmlns="http://www.w3.org/2000/svg">
<path d="M15.0001 9.1665H16.6667C17.5872 9.1665 18.3334 9.9127 18.3334 10.8332V11.6665C18.3334 12.587 17.5872 13.3332 16.6667 13.3332M15.0001 9.1665L13.7133 5.30612C13.4864 4.62555 12.8495 4.1665 12.1321 4.1665H8.33341M15.0001 9.1665H8.33341M3.33341 9.1665L4.62021 5.30612C4.84706 4.62555 5.48396 4.1665 6.20135 4.1665H8.33341M3.33341 9.1665H8.33341M3.33341 9.1665C2.41294 9.1665 1.66675 9.9127 1.66675 10.8332V11.6665C1.66675 12.587 2.41294 13.3332 3.33341 13.3332M8.33341 9.1665V4.1665M6.66675 13.3332H13.3334M6.66675 13.3332C6.66675 14.2536 5.92056 14.9998 5.00008 14.9998C4.07961 14.9998 3.33341 14.2536 3.33341 13.3332M6.66675 13.3332C6.66675 12.4127 5.92056 11.6665 5.00008 11.6665C4.07961 11.6665 3.33341 12.4127 3.33341 13.3332M13.3334 13.3332C13.3334 14.2536 14.0796 14.9998 15.0001 14.9998C15.9206 14.9998 16.6667 14.2536 16.6667 13.3332M13.3334 13.3332C13.3334 12.4127 14.0796 11.6665 15.0001 11.6665C15.9206 11.6665 16.6667 12.4127 16.6667 13.3332" stroke="#005EAB" stroke-width="1.5"/>
</svg>
