<svg width="166" height="52" viewBox="0 0 166 52" fill="none" xmlns="http://www.w3.org/2000/svg">
<g clip-path="url(#clip0_3486_1216)">
<path d="M28.5217 28.6494V23.1201L23.6991 20.3564L18.8745 23.1201V28.6494L23.6991 31.413L28.5217 28.6494Z" fill="white"/>
<path d="M14.6304 27.9414H9.74438V33.9467L21.7296 40.8175V35.1505L14.6304 31.0827V27.9414Z" fill="white"/>
<path d="M14.6304 20.6869L21.7296 16.6191V11.1587L9.74438 18.0275V24.0328H14.6304V20.6869Z" fill="white"/>
<path d="M25.6665 0.0766602V6.60125L41.5609 15.7105V22.0797H37.519V18.0276L25.6665 11.2355V16.6193L32.7657 20.687V31.0827L25.6665 35.1505V40.7408L37.519 33.9467V29.8966H41.5609V36.2638L25.6665 45.375V51.9232L47.2613 39.5448V12.4551L25.6665 0.0766602Z" fill="white"/>
<path d="M5.70036 36.2638V27.9414H0V39.5448L21.7295 52V45.4518L5.70036 36.2638Z" fill="white"/>
<path d="M5.70036 15.7105L21.7295 6.52459V0L0 12.4551V24.033H5.70036V15.7105Z" fill="white"/>
<path d="M56.334 18.0354C56.334 11.5245 59.835 7.28955 65.6999 7.28955C71.5647 7.28955 74.5981 10.5292 74.5981 15.7005V15.9798H69.93V15.8244C69.93 12.8346 68.763 11.8058 65.6701 11.8058C62.3732 11.8058 61.0021 13.0824 61.0021 18.0354C61.0021 22.9883 62.3732 24.2649 65.6701 24.2649C68.763 24.2649 69.93 23.2361 69.93 20.2463V20.0909H74.5981V20.3702C74.5981 25.5415 71.4755 28.7812 65.6999 28.7812C59.9242 28.7812 56.334 24.5442 56.334 18.0354Z" fill="white"/>
<path d="M74.5684 28.4706L81.7746 7.60059H88.1347L95.3409 28.4706H90.5856L89.0105 23.8304H80.7244L79.1195 28.4706H74.5684ZM82.153 19.6564H87.5799L86.4704 16.4167L85.0418 11.7136H84.7505L83.2626 16.4167L82.153 19.6564Z" fill="white"/>
<path d="M96.2742 28.4706V7.60059H105.26C109.928 7.60059 112.525 9.90593 112.525 13.954C112.525 17.3491 110.95 19.3732 107.596 19.6859V19.9967C109.288 20.5573 110.104 21.647 110.863 23.2364L113.344 28.4686H108.238L105.933 23.6416C105.058 21.8359 104.475 21.0569 102.403 21.0569H100.653V28.4706H96.2762H96.2742ZM100.651 17.1937H105.466C107.508 17.1937 108.178 16.5387 108.178 14.4832C108.178 12.4276 107.506 11.8041 105.466 11.8041H100.651V17.1937Z" fill="white"/>
<path d="M114.624 28.4706V7.60059H119V24.2651H129.095V28.4706H114.624Z" fill="white"/>
<path d="M129.123 18.0354C129.123 11.5245 132.682 7.28955 138.517 7.28955C144.352 7.28955 147.883 11.5265 147.883 18.0354C147.883 24.5442 144.352 28.7812 138.517 28.7812C132.682 28.7812 129.123 24.5442 129.123 18.0354ZM143.214 18.0354C143.214 13.1454 141.873 11.8058 138.517 11.8058C135.16 11.8058 133.791 13.1454 133.791 18.0354C133.791 22.9254 135.162 24.2649 138.517 24.2649C141.871 24.2649 143.214 22.9254 143.214 18.0354Z" fill="white"/>
<path d="M149.953 21.6783V21.2731H154.243V21.5839C154.243 23.8892 155.029 24.5423 158.56 24.5423C161.041 24.5423 161.653 24.0132 161.653 22.6107C161.653 21.2082 161.362 20.7105 158.62 20.2129L155.176 19.5579C151.441 18.8733 149.866 16.8473 149.866 13.6076C149.866 10.368 152.053 7.28369 157.657 7.28369C163.26 7.28369 165.562 10.368 165.562 14.5105V14.7603H161.245V14.4181C161.245 12.2386 160.399 11.5206 157.51 11.5206C155.002 11.5206 154.213 12.1127 154.213 13.4208C154.213 14.7288 154.738 15.0711 157.015 15.5393L160.486 16.2552C164.599 17.0971 166 19.4005 166 22.4533C166 25.7854 163.9 28.7773 158.356 28.7773C152.812 28.7773 149.953 26.2851 149.953 21.6744V21.6783Z" fill="white"/>
<path d="M57.3047 44.0767V31.6865H62.2402C64.6654 31.6865 66.4486 33.2208 66.4486 35.8841C66.4486 38.5475 64.6654 40.0817 62.2402 40.0817H59.1751V44.0767H57.3047ZM59.1751 33.4804V38.2878H62.4661C63.9898 38.2878 64.5961 37.6584 64.5961 35.8841C64.5961 34.1099 63.9898 33.4804 62.4661 33.4804H59.1751Z" fill="white"/>
<path d="M65.8442 44.0767L70.3657 31.6865H73.0504L77.5719 44.0767H75.545L74.368 40.8587H68.9807L67.8038 44.0767H65.8462H65.8442ZM69.6366 39.0648H73.7063L72.4937 35.7917L71.7487 33.4981H71.61L70.8472 35.7917L69.6346 39.0648H69.6366Z" fill="white"/>
<path d="M78.3506 44.0767V31.6865H80.3597L84.7603 38.7874L85.9907 40.7663H86.1294V31.6865H87.9998V44.0767H85.9907L81.6079 37.086L80.3438 35.0698H80.223V44.0748H78.3526L78.3506 44.0767Z" fill="white"/>
<path d="M89.9556 44.0767V31.6865H91.9647L96.3633 38.7874L97.5937 40.7663H97.7324V31.6865H99.6028V44.0767H97.5937L93.2109 37.086L91.9468 35.0698H91.826V44.0748H89.9556V44.0767Z" fill="white"/>
<path d="M101.542 44.0767V31.6865H109.838V33.4804H103.413V36.9385H109.579V38.7501H103.413V42.2828H109.838V44.0767H101.542Z" fill="white"/>
<path d="M111.364 44.0767V31.6865H113.373L117.774 38.7874L119.004 40.7663H119.143V31.6865H121.013V44.0767H119.004L114.621 37.086L113.357 35.0698H113.236V44.0748H111.366L111.364 44.0767Z" fill="white"/>
<path d="M122.951 44.0767V31.6865H124.821V36.9385H130.676V31.6865H132.547V44.0767H130.676V38.7324H124.821V44.0767H122.951Z" fill="white"/>
<path d="M134.486 44.0767V31.6865H136.357V44.0767H134.486Z" fill="white"/>
<path d="M138.332 44.0767V31.6865H140.203V42.2828H146.386V44.0767H138.332Z" fill="white"/>
<path d="M147.27 44.0767V31.6865H155.497V33.4804H149.141V37.3083H155.237V39.1199H149.141V44.0748H147.27V44.0767Z" fill="white"/>
<path d="M156.882 44.0767V31.6865H165.178V33.4804H158.752V36.9385H164.918V38.7501H158.752V42.2828H165.178V44.0767H156.882Z" fill="white"/>
</g>
<defs>
<clipPath id="clip0_3486_1216">
<rect width="166" height="52" fill="white"/>
</clipPath>
</defs>
</svg>
