<svg width="480" height="444" viewBox="0 0 480 444" fill="none" xmlns="http://www.w3.org/2000/svg">
<path d="M13.0042 180.692V187.188H22.5567L33.1026 205.452H40.5918L26.2953 180.692H13.0042ZM26.2953 296.939L40.5036 272.332H33.0145L22.5567 290.443H15.2438V285.835H19.8937L27.6886 272.326H21.5103L16.8369 280.415H4.90361L0.230225 272.326H-6.18904L1.61168 285.835H6.26154V290.443H-1.05127L-11.5091 272.332H-19.0276L-4.81937 296.939H26.2777H26.2953ZM-11.5796 265.272L-1.03365 247.007H8.51888V240.512H-4.80174L-19.0982 265.272H-11.5796ZM-19.0982 205.452H-11.5796L-1.03365 187.188H8.51888V180.692H-4.80174L-19.0982 205.452ZM393.323 205.452H400.842L411.388 187.188H420.94V180.692H407.62L393.323 205.452ZM13.0042 197.364H16.8428L21.5162 205.452H27.7826L19.8996 191.797H13.0042V197.364ZM-38.5089 209.938V216.433H-28.9564L-18.4104 234.698H-10.9212L-25.2177 209.938H-38.5089ZM79.3779 295.687L71.4949 282.031H64.5994V287.598H68.4381L73.1115 295.687H79.3779ZM65.6458 303.429L68.8202 297.932L65.6458 292.436H59.2971L56.1227 297.932L59.2971 303.429H65.6458ZM50.5558 277.422H60.1083V270.927H46.7877L32.4913 295.687H40.0098L50.5558 277.422ZM92.1812 295.687L77.8848 270.927H64.5936V277.422H74.1461L84.692 295.687H92.1812ZM56.5048 287.598H60.1083V282.031H53.2129L45.3239 295.687H51.8314L56.5048 287.598ZM-38.5089 270.927V277.422H-28.9564L-18.4104 295.687H-10.9212L-25.2177 270.927H-38.5089ZM290.227 205.452H297.745L308.291 187.188H317.844V180.692H304.523L290.227 205.452ZM219.209 180.692V187.188H228.762L239.307 205.452H246.797L232.5 180.692H219.209ZM313.852 207.698L317.027 213.194H323.375L326.55 207.698L323.375 202.202H317.027L313.852 207.698ZM322.323 180.692V187.188H331.876L342.422 205.452H349.911L335.614 180.692H322.323ZM219.209 197.364H223.048L227.721 205.452H233.987L226.104 191.797H219.209V197.364ZM322.323 197.364H326.162L330.835 205.452H337.102L329.219 191.797H322.323V197.364ZM490.306 209.938H477.015V216.433H486.568L497.114 234.698H504.603L490.306 209.938ZM107.636 207.692L110.81 213.188H117.159L120.333 207.692L117.159 202.196H110.81L107.636 207.692ZM116.107 197.358H119.945L124.619 205.446H130.885L123.002 191.791H116.107V197.358ZM210.738 207.692L213.913 213.188H220.261L223.436 207.692L220.261 202.196H213.913L210.738 207.692ZM116.107 180.686V187.182H125.659L136.205 205.446H143.694L129.398 180.686H116.107ZM84.0043 205.446H91.5228L102.069 187.182H111.621V180.686H98.3007L84.0043 205.446ZM4.52739 207.692L7.70175 213.188H14.0505L17.2249 207.692L14.0505 202.196H7.70175L4.52739 207.692ZM388.685 295.687L380.802 282.031H373.907V287.598H377.745L382.419 295.687H388.685ZM374.953 303.429L378.128 297.932L374.953 292.436H368.604L365.43 297.932L368.604 303.429H374.953ZM401.494 295.687L387.198 270.927H373.907V277.422H383.459L394.005 295.687H401.494ZM438.711 296.933L452.919 272.326H445.43L434.972 290.437H427.659V285.829H432.309L440.104 272.32H433.926L429.253 280.409H417.319L412.646 272.32H406.227L414.027 285.829H418.677V290.437H411.364L400.907 272.326H393.388L407.596 296.933H438.693H438.711ZM335.609 296.933L349.817 272.326H342.328L331.87 290.437H324.557V285.829H329.207L337.002 272.32H330.824L326.15 280.409H314.217L309.543 272.32H303.124L310.925 285.829H315.575V290.437H308.262L297.804 272.326H290.286L304.494 296.933H335.591H335.609ZM365.812 287.598H369.416V282.031H362.52L354.631 295.687H361.139L365.812 287.598ZM359.863 277.422H369.416V270.927H356.095L341.799 295.687H349.317L359.863 277.422ZM129.386 296.933L143.594 272.326H136.105L125.647 290.437H118.335V285.829H122.984L130.779 272.32H124.601L119.928 280.409H107.994L103.321 272.32H96.9016L104.702 285.829H109.352V290.437H102.039L91.5816 272.326H84.063L98.2713 296.933H129.368H129.386ZM491.782 295.687L483.899 282.031H477.003V287.598H480.842L485.515 295.687H491.782ZM504.591 295.687L490.295 270.927H477.003V277.422H486.556L497.102 295.687H504.591ZM478.05 303.429L481.224 297.932L478.05 292.436H471.701L468.527 297.932L471.701 303.429H478.05ZM468.909 287.598H472.512V282.031H465.617L457.728 295.687H464.235L468.909 287.598ZM462.96 277.422H472.512V270.927H459.192L444.895 295.687H452.414L462.96 277.422ZM182.457 295.687L174.574 282.031H167.678V287.598H171.517L176.19 295.687H182.457ZM168.725 303.429L171.899 297.932L168.725 292.436H162.376L159.202 297.932L162.376 303.429H168.725ZM195.266 295.687L180.97 270.927H167.678V277.422H177.231L187.777 295.687H195.266ZM159.59 287.598H163.193V282.031H156.298L148.409 295.687H154.916L159.59 287.598ZM153.641 277.422H163.193V270.927H149.873L135.576 295.687H143.095L153.641 277.422ZM232.483 296.933L246.691 272.326H239.202L228.744 290.437H221.431V285.829H226.081L233.876 272.32H227.698L223.024 280.409H211.091L206.418 272.32H199.998L207.799 285.829H212.449V290.437H205.136L194.678 272.326H187.16L201.368 296.933H232.465H232.483ZM271.845 303.429L275.019 297.932L271.845 292.436H265.496L262.322 297.932L265.496 303.429H271.845ZM298.386 295.687L284.09 270.927H270.798V277.422H280.351L290.897 295.687H298.386ZM285.577 295.687L277.694 282.031H270.798V287.598H274.637L279.31 295.687H285.577ZM256.761 277.422H266.313V270.927H252.993L238.696 295.687H246.215L256.761 277.422ZM262.71 287.598H266.313V282.031H259.418L251.529 295.687H258.036L262.71 287.598ZM187.095 205.452H194.614L205.159 187.188H214.712V180.692H201.391L187.095 205.452ZM64.5818 221.042V226.609H68.4205L73.0938 234.698H79.3603L71.4773 221.042H64.5818ZM64.5818 209.938V216.433H74.1343L84.6803 234.698H92.1695L77.873 209.938H64.5818ZM56.1109 236.943L59.2853 242.44H65.6341L68.8084 236.943L65.6341 231.447H59.2853L56.1109 236.943ZM51.8197 234.698L56.493 226.609H60.0965V221.042H53.2011L45.3122 234.698H51.8197ZM159.208 236.943L162.382 242.44H168.731L171.905 236.943L168.731 231.447H162.382L159.208 236.943ZM154.916 234.698L159.59 226.609H163.193V221.042H156.298L148.409 234.698H154.916ZM135.576 234.698H143.095L153.641 216.433H163.193V209.938H149.873L135.576 234.698ZM117.141 273.008L120.316 267.511L117.141 262.015H110.792L107.618 267.511L110.792 273.008H117.141ZM102.051 247.001H111.604V240.506H98.2831L83.9866 265.266H91.5052L102.051 247.001ZM77.8672 266.359L92.0754 241.752H84.5862L74.1284 259.863H66.8156V255.255H71.4655L79.2603 241.746H73.0821L68.4087 249.835H56.4754L51.802 241.746H45.3827L53.1835 255.255H57.8333V259.863H50.5205L40.0627 241.752H32.5442L46.7524 266.359H77.8495H77.8672ZM32.4736 234.692H39.9922L50.5382 216.427H60.0907V209.932H46.7701L32.4736 234.692ZM40.5742 265.266L26.2777 240.506H12.9865V247.001H22.539L33.085 265.266H40.5742ZM108 257.177H111.604V251.61H104.708L96.8193 265.266H103.327L108 257.177ZM361.133 234.698L365.806 226.609H369.41V221.042H362.514L354.625 234.698H361.133ZM341.793 234.698H349.311L359.857 216.433H369.41V209.938H356.089L341.793 234.698ZM373.895 221.042V226.609H377.734L382.407 234.698H388.673L380.79 221.042H373.895ZM365.424 236.943L368.599 242.44H374.947L378.122 236.943L374.947 231.447H368.599L365.424 236.943ZM167.678 221.042V226.609H171.517L176.19 234.698H182.457L174.574 221.042H167.678ZM270.793 209.938V216.433H280.345L290.891 234.698H298.38L284.084 209.938H270.793ZM167.678 209.938V216.433H177.231L187.777 234.698H195.266L180.97 209.938H167.678ZM238.696 234.698H246.215L256.761 216.433H266.313V209.938H252.993L238.696 234.698ZM258.036 234.698L262.71 226.609H266.313V221.042H259.418L251.529 234.698H258.036ZM262.328 236.943L265.502 242.44H271.851L275.025 236.943L271.851 231.447H265.502L262.328 236.943ZM416.943 207.692L420.117 213.188H426.466L429.641 207.692L426.466 202.196H420.117L416.943 207.692ZM270.798 221.036V226.603H274.637L279.31 234.692H285.577L277.694 221.036H270.798ZM411.376 247.001H420.929V240.506H407.608L393.312 265.266H400.83L411.376 247.001ZM417.325 257.177H420.929V251.61H414.033L406.144 265.266H412.652L417.325 257.177ZM426.466 273.008L429.641 267.511L426.466 262.015H420.117L416.943 267.511L420.117 273.008H426.466ZM349.905 265.266L335.609 240.506H322.317V247.001H331.87L342.416 265.266H349.905ZM387.198 266.359L401.406 241.752H393.917L383.459 259.863H376.146V255.255H380.796L388.591 241.746H382.413L377.74 249.835H365.806L361.133 241.746H354.714L362.514 255.255H367.164V259.863H359.851L349.394 241.752H341.875L356.083 266.359H387.18H387.198ZM440.198 265.266L432.315 251.61H425.42V257.177H429.258L433.932 265.266H440.198ZM425.42 180.686V187.182H434.972L445.518 205.446H453.007L438.711 180.686H425.42ZM425.42 197.358H429.258L433.932 205.446H440.198L432.315 191.791H425.42V197.358ZM453.007 265.266L438.711 240.506H425.42V247.001H434.972L445.518 265.266H453.007ZM337.096 265.266L329.213 251.61H322.317V257.177H326.156L330.829 265.266H337.096ZM477.009 221.036V226.603H480.848L485.521 234.692H491.788L483.905 221.036H477.009ZM490.3 266.359L504.509 241.752H497.02L486.562 259.863H479.249V255.255H483.899L491.694 241.746H485.515L480.842 249.835H468.909L464.235 241.746H457.816L465.617 255.255H470.267V259.863H462.954L452.496 241.752H444.977L459.186 266.359H490.283H490.3ZM143.688 265.266L129.392 240.506H116.101V247.001H125.653L136.199 265.266H143.688ZM205.165 247.001H214.718V240.506H201.397L187.101 265.266H194.619L205.165 247.001ZM220.255 273.008L223.43 267.511L220.255 262.015H213.907L210.732 267.511L213.907 273.008H220.255ZM211.114 257.177H214.718V251.61H207.822L199.934 265.266H206.441L211.114 257.177ZM130.885 265.266L123.002 251.61H116.107V257.177H119.945L124.619 265.266H130.885ZM180.981 266.359L195.19 241.752H187.7L177.243 259.863H169.93V255.255H174.58L182.375 241.746H176.196L171.523 249.835H159.59L154.916 241.746H148.497L156.298 255.255H160.948V259.863H153.635L143.177 241.752H135.658L149.867 266.359H180.964H180.981ZM314.229 257.177H317.832V251.61H310.937L303.048 265.266H309.555L314.229 257.177ZM323.37 273.008L326.544 267.511L323.37 262.015H317.021L313.846 267.511L317.021 273.008H323.37ZM308.28 247.001H317.832V240.506H304.511L290.215 265.266H297.734L308.28 247.001ZM233.982 265.266L226.099 251.61H219.203V257.177H223.042L227.715 265.266H233.982ZM284.096 266.359L298.304 241.752H290.815L280.357 259.863H273.044V255.255H277.694L285.489 241.746H279.31L274.637 249.835H262.704L258.03 241.746H251.611L259.412 255.255H264.062V259.863H256.749L246.291 241.752H238.773L252.981 266.359H284.078H284.096ZM-90.1042 301.495V307.99H-80.5517L-70.0057 326.255H-62.5165L-76.813 301.495H-90.1042ZM-30.0086 234.698H-23.7422L-31.6252 221.042H-38.5206V226.609H-34.682L-30.0086 234.698ZM528.522 251.61V257.177H532.361L537.034 265.266H543.301L535.418 251.61H528.522ZM528.522 191.791V197.358H532.361L537.034 205.446H543.301L535.418 191.791H528.522ZM556.022 209.938H548.533L538.075 228.049H530.762V223.44H535.412L543.207 209.932H537.028L532.355 218.021H520.422L515.748 209.932H509.329L517.13 223.44H521.78V228.049H514.467L504.009 209.938H496.49L510.699 234.545H541.796L556.004 209.938H556.022ZM556.022 272.326H548.533L538.075 290.437H530.762V285.829H535.412L543.207 272.32H537.028L532.355 280.409H520.422L515.748 272.32H509.329L517.13 285.829H521.78V290.437H514.467L504.009 272.326H496.49L510.699 296.933H541.796L556.004 272.326H556.022ZM543.301 326.261L535.418 312.605H528.522V318.172H532.361L537.034 326.261H543.301ZM529.569 334.003L532.743 328.506L529.569 323.01H523.22L520.046 328.506L523.22 334.003H529.569ZM556.022 151.517H548.533L538.075 169.629H530.762V165.02H535.412L543.207 151.512H537.028L532.355 159.6H520.422L515.748 151.512H509.329L517.13 165.02H521.78V169.629H514.467L504.009 151.517H496.49L510.699 176.125H541.796L556.004 151.517H556.022ZM496.42 144.463H503.938L514.484 126.199H524.037V119.703H510.716L496.42 144.463ZM520.051 146.709L523.226 152.205H529.574L532.749 146.709L529.574 141.212H523.226L520.051 146.709ZM477.009 150.124V156.62H486.562L497.108 174.884H504.597L490.3 150.124H477.009ZM520.433 318.178H524.037V312.611H517.141L509.253 326.267H515.76L520.433 318.178ZM528.522 130.813V136.38H532.361L537.034 144.469H543.301L535.418 130.813H528.522ZM387.192 324.797L401.4 300.19H393.911L383.453 318.301H376.141V313.693H380.79L388.585 300.184H382.407L377.734 308.273H365.8L361.127 300.184H354.708L362.508 313.693H367.158V318.301H359.846L349.388 300.19H341.869L356.077 324.797H387.174H387.192ZM349.899 326.272L335.603 301.512H322.311V308.008H331.864L342.41 326.272H349.899ZM337.09 326.272L329.207 312.617H322.311V318.184H326.15L330.824 326.272H337.09ZM308.274 308.008H317.826V301.512H304.506L290.209 326.272H297.728L308.274 308.008ZM314.223 318.184H317.826V312.617H310.931L303.042 326.272H309.549L314.223 318.184ZM411.376 308.008H420.929V301.512H407.608L393.312 326.272H400.83L411.376 308.008ZM323.364 334.014L326.538 328.518L323.364 323.022H317.015L313.841 328.518L317.015 334.014H323.364ZM514.479 308.008H524.031V301.512H510.711L496.414 326.272H503.933L514.479 308.008ZM453.002 326.272L438.705 301.512H425.414V308.008H434.966L445.512 326.272H453.002ZM490.295 324.797L504.503 300.19H497.014L486.556 318.301H479.243V313.693H483.893L491.688 300.184H485.51L480.836 308.273H468.903L464.229 300.184H457.81L465.611 313.693H470.261V318.301H462.948L452.49 300.19H444.972L459.18 324.797H490.277H490.295ZM426.46 334.014L429.635 328.518L426.46 323.022H420.112L416.937 328.518L420.112 334.014H426.46ZM440.192 326.272L432.309 312.617H425.414V318.184H429.253L433.926 326.272H440.192ZM417.325 318.184H420.929V312.617H414.033L406.144 326.272H412.652L417.325 318.184ZM425.414 119.715V126.211H434.966L445.512 144.475H453.002L438.705 119.715H425.414ZM12.9924 136.386H16.831L21.5044 144.475H27.7709L19.8878 130.819H12.9924V136.386ZM-19.1099 144.475H-11.5914L-1.04539 126.211H8.50713V119.715H-4.81349L-19.1099 144.475ZM4.52151 146.721L7.69589 152.217H14.0446L17.219 146.721L14.0446 141.224H7.69589L4.52151 146.721ZM12.9924 119.715V126.211H22.5449L33.0909 144.475H40.58L26.2836 119.715H12.9924ZM116.095 136.386H119.933L124.607 144.475H130.873L122.99 130.819H116.095V136.386ZM107.624 146.721L110.798 152.217H117.147L120.321 146.721L117.147 141.224H110.798L107.624 146.721ZM83.9925 144.475H91.5111L102.057 126.211H111.61V119.715H98.2889L83.9925 144.475ZM425.414 136.386H429.253L433.926 144.475H440.192L432.309 130.819H425.414V136.386ZM-90.0983 240.512V247.007H-80.5458L-69.9998 265.272H-62.5107L-76.8071 240.512H-90.0983ZM-63.0985 295.693L-52.5525 277.428H-43V270.933H-56.3206L-70.6171 295.693H-63.0985ZM-90.0983 180.692V187.188H-80.5458L-69.9998 205.452H-62.5107L-76.8071 180.692H-90.0983ZM-63.0985 174.884L-52.5525 156.62H-43V150.124H-56.3206L-70.6171 174.884H-63.0985ZM-90.0983 119.703V126.199H-80.5458L-69.9998 144.463H-62.5107L-76.8071 119.703H-90.0983ZM322.323 136.374H326.162L330.835 144.463H337.102L329.219 130.808H322.323V136.374ZM322.323 119.703V126.199H331.876L342.422 144.463H349.911L335.614 119.703H322.323ZM393.323 144.463H400.842L411.388 126.199H420.94V119.703H407.62L393.323 144.463ZM313.852 146.709L317.027 152.205H323.375L326.55 146.709L323.375 141.212H317.027L313.852 146.709ZM416.955 146.709L420.129 152.205H426.478L429.652 146.709L426.478 141.212H420.129L416.955 146.709ZM187.107 144.463H194.625L205.171 126.199H214.724V119.703H201.403L187.107 144.463ZM116.107 119.703V126.199H125.659L136.205 144.463H143.694L129.398 119.703H116.107ZM210.738 146.709L213.913 152.205H220.261L223.436 146.709L220.261 141.212H213.913L210.738 146.709ZM219.209 119.703V126.199H228.762L239.307 144.463H246.797L232.5 119.703H219.209ZM290.227 144.463H297.745L308.291 126.199H317.844V119.703H304.523L290.227 144.463ZM219.209 136.374H223.048L227.721 144.463H233.987L226.104 130.808H219.209V136.374ZM520.439 136.374H524.043V130.808H517.147L509.258 144.463H515.766L520.439 136.374ZM64.5936 150.118V156.614H74.1461L84.692 174.878H92.1812L77.8848 150.118H64.5936ZM64.5936 166.79H68.4322L73.1056 174.878H79.372L71.489 161.223H64.5936V166.79ZM135.594 174.878H143.112L153.658 156.614H163.211V150.118H149.89L135.594 174.878ZM56.1227 177.124L59.2971 182.62H65.6458L68.8202 177.124L65.6458 171.628H59.2971L56.1227 177.124ZM159.225 177.124L162.4 182.62H168.748L171.923 177.124L168.748 171.628H162.4L159.225 177.124ZM-52.5467 197.481L-63.0044 179.37H-70.523L-56.3147 203.977H-25.2177L-11.0094 179.37H-18.4986L-28.9564 197.481H-36.2692V192.872H-31.6193L-23.8245 179.364H-30.0027L-34.6761 187.452H-46.6094L-51.2828 179.364H-57.7021L-49.9013 192.872H-45.2515V197.481H-52.5643H-52.5467ZM-57.7726 174.884H-51.2651L-46.5918 166.796H-42.9883V161.229H-49.8837L-57.7726 174.884ZM-46.9797 177.13L-43.8054 182.626H-37.4566L-34.2823 177.13L-37.4566 171.634H-43.8054L-46.9797 177.13ZM167.696 150.124V156.62H177.249L187.794 174.884H195.284L180.987 150.124H167.696ZM32.4913 174.884H40.0098L50.5558 156.62H60.1083V150.124H46.7877L32.4913 174.884ZM-38.5147 150.124V156.62H-28.9622L-18.4163 174.884H-10.9271L-25.2235 150.124H-38.5147ZM-38.5147 166.796H-34.6761L-30.0027 174.884H-23.7363L-31.6193 161.229H-38.5147V166.796ZM167.69 166.796H171.529L176.202 174.884H182.469L174.586 161.229H167.69V166.796ZM373.907 166.796H377.745L382.419 174.884H388.685L380.802 161.229H373.907V166.796ZM373.907 150.124V156.62H383.459L394.005 174.884H401.494L387.198 150.124H373.907ZM444.913 174.884H452.431L462.977 156.62H472.53V150.124H459.209L444.913 174.884ZM468.544 177.13L471.719 182.626H478.067L481.242 177.13L478.067 171.634H471.719L468.544 177.13ZM477.015 166.796H480.854L485.527 174.884H491.794L483.911 161.229H477.015V166.796ZM341.81 174.884H349.329L359.875 156.62H369.427V150.124H356.107L341.81 174.884ZM262.339 177.13L265.514 182.626H271.862L275.037 177.13L271.862 171.634H265.514L262.339 177.13ZM365.442 177.13L368.616 182.626H374.965L378.139 177.13L374.965 171.634H368.616L365.442 177.13ZM270.81 166.796H274.649L279.322 174.884H285.589L277.706 161.229H270.81V166.796ZM238.708 174.884H246.226L256.772 156.62H266.325V150.124H253.004L238.708 174.884ZM270.81 150.124V156.62H280.363L290.909 174.884H298.398L284.101 150.124H270.81ZM108.018 318.178H111.621V312.611H104.726L96.837 326.267H103.344L108.018 318.178ZM130.885 326.267L123.002 312.611H116.107V318.178H119.945L124.619 326.267H130.885ZM117.153 334.009L120.327 328.512L117.153 323.016H110.804L107.63 328.512L110.804 334.009H117.153ZM143.694 326.267L129.398 301.507H116.107V308.002H125.659L136.205 326.267H143.694ZM284.101 324.791L298.31 300.184H290.82L280.363 318.295H273.05V313.687H277.7L285.495 300.178H279.316L274.643 308.267H262.71L258.036 300.178H251.617L259.418 313.687H264.068V318.295H256.755L246.297 300.184H238.778L252.987 324.791H284.084H284.101ZM102.069 308.002H111.621V301.507H98.3007L84.0043 326.267H91.5228L102.069 308.002ZM180.987 324.791L195.195 300.184H187.706L177.249 318.295H169.936V313.687H174.586L182.38 300.178H176.202L171.529 308.267H159.595L154.922 300.178H148.503L156.304 313.687H160.953V318.295H153.641L143.183 300.184H135.664L149.873 324.791H180.97H180.987ZM233.987 326.267L226.104 312.611H219.209V318.178H223.048L227.721 326.267H233.987ZM205.171 308.002H214.724V301.507H201.403L187.107 326.267H194.625L205.171 308.002ZM77.8848 324.791L92.093 300.184H84.6039L74.1461 318.295H66.8333V313.687H71.4831L79.278 300.178H73.0997L68.4263 308.267H56.493L51.8197 300.178H45.4004L53.2011 313.687H57.851V318.295H50.5382L40.0804 300.184H32.5618L46.7701 324.791H77.8672H77.8848ZM246.797 326.267L232.5 301.507H219.209V308.002H228.762L239.307 326.267H246.797ZM220.255 334.009L223.43 328.512L220.255 323.016H213.907L210.732 328.512L213.907 334.009H220.255ZM211.114 318.178H214.718V312.611H207.822L199.934 326.267H206.441L211.114 318.178ZM-1.03952 308.002H8.51299V301.507H-4.80762L-19.104 326.267H-11.5855L-1.03952 308.002ZM40.5859 326.267L26.2895 301.507H12.9983V308.002H22.5508L33.0967 326.267H40.5859ZM-46.9856 297.938L-43.8112 303.435H-37.4625L-34.2881 297.938L-37.4625 292.442H-43.8112L-46.9856 297.938ZM-57.7785 295.693H-51.271L-46.5976 287.604H-42.9941V282.037H-49.8896L-57.7785 295.693ZM-52.5525 259.869L-63.0103 241.758H-70.5289L-56.3206 266.365H-25.2235L-11.0153 241.758H-18.5044L-28.9622 259.869H-36.2751V255.261H-31.6252L-23.8303 241.752H-30.0086L-34.682 249.841H-46.6153L-51.2887 241.752H-57.7079L-49.9072 255.261H-45.2574V259.869H-52.5702H-52.5525ZM-46.9856 236.943L-43.8112 242.44H-37.4625L-34.2881 236.943L-37.4625 231.447H-43.8112L-46.9856 236.943ZM-30.0027 295.687H-23.7363L-31.6193 282.031H-38.5147V287.598H-34.6761L-30.0027 295.687ZM14.0505 333.997L17.2249 328.5L14.0505 323.004H7.70175L4.52739 328.5L7.70175 333.997H14.0505ZM-52.5525 318.284L-63.0103 300.172H-70.5289L-56.3206 324.779H-25.2235L-11.0153 300.172H-18.5044L-28.9622 318.284H-36.2751V313.675H-31.6252L-23.8303 300.166H-30.0086L-34.682 308.255H-46.6153L-51.2887 300.166H-57.7079L-49.9072 313.675H-45.2574V318.284H-52.5702H-52.5525ZM27.7826 326.255L19.8996 312.599H13.0042V318.166H16.8428L21.5162 326.255H27.7826ZM4.91537 318.166H8.51888V312.599H1.62343L-6.26547 326.255H0.242004L4.91537 318.166ZM373.913 209.932V216.427H383.465L394.011 234.692H401.5L387.204 209.932H373.913ZM246.797 265.266L232.5 240.506H219.209V247.001H228.762L239.307 265.266H246.797ZM599.528 386.08H607.047L617.593 367.816H627.145V361.32H613.825L599.528 386.08ZM-57.7785 54.0642H-51.271L-46.5976 45.9754H-42.9941V40.4085H-49.8896L-57.7785 54.0642ZM-30.0027 54.0642H-23.7363L-31.6193 40.4085H-38.5147V45.9754H-34.6761L-30.0027 54.0642ZM-46.9856 56.3097L-43.8112 61.8061H-37.4625L-34.2881 56.3097L-37.4625 50.8134H-43.8112L-46.9856 56.3097ZM159.219 56.3097L162.394 61.8061H168.742L171.917 56.3097L168.742 50.8134H162.394L159.219 56.3097ZM627.139 372.43H620.244L612.355 386.086H618.863L623.536 377.997H627.139V372.43ZM56.1227 56.3097L59.2971 61.8061H65.6458L68.8202 56.3097L65.6458 50.8134H59.2971L56.1227 56.3097ZM-52.5467 76.6669L-63.0044 58.5553H-70.523L-56.3147 83.1626H-25.2177L-11.0094 58.5553H-18.4986L-28.9564 76.6669H-36.2692V72.0582H-31.6193L-23.8245 58.5494H-30.0027L-34.6761 66.6382H-46.6094L-51.2828 58.5494H-57.7021L-49.9013 72.0582H-45.2515V76.6669H-52.5643H-52.5467ZM50.5558 76.6669L40.098 58.5553H32.5794L46.7877 83.1626H77.8848L92.093 58.5553H84.6039L74.1461 76.6669H66.8333V72.0582H71.4831L79.278 58.5494H73.0997L68.4263 66.6382H56.493L51.8197 58.5494H45.4004L53.2011 72.0582H57.851V76.6669H50.5382H50.5558ZM45.3298 54.07H51.8373L56.5107 45.9813H60.1142V40.4144H53.2188L45.3298 54.07ZM73.1056 54.07H79.372L71.489 40.4144H64.5936V45.9813H68.4322L73.1056 54.07ZM599.528 326.267H607.047L617.593 308.002H627.145V301.507H613.825L599.528 326.267ZM632.677 393.834L635.851 388.337L632.677 382.841H626.328L623.154 388.337L626.328 393.834H632.677ZM627.139 130.808H620.244L612.355 144.463H618.863L623.536 136.374H627.139V130.808ZM599.522 144.463H607.041L617.587 126.199H627.139V119.703H613.819L599.522 144.463ZM627.139 70.9765H620.244L612.355 84.6322H618.863L623.536 76.5434H627.139V70.9765ZM632.677 152.205L635.851 146.709L632.677 141.212H626.328L623.154 146.709L626.328 152.205H632.677ZM599.528 84.6381H607.047L617.593 66.3737H627.145V59.878H613.825L599.528 84.6381ZM627.145 191.797H620.25L612.361 205.452H618.868L623.542 197.364H627.145V191.797ZM632.683 334.003L635.857 328.506L632.683 323.01H626.334L623.16 328.506L626.334 334.003H632.683ZM599.534 205.452H607.053L617.599 187.188H627.151V180.692H613.831L599.534 205.452ZM599.534 265.272H607.053L617.599 247.007H627.151V240.512H613.831L599.534 265.272ZM627.151 312.605H620.256L612.367 326.261H618.874L623.548 318.172H627.151V312.605ZM632.689 273.014L635.863 267.517L632.689 262.021H626.34L623.166 267.517L626.34 273.014H632.689ZM627.151 251.616H620.256L612.367 265.272H618.874L623.548 257.183H627.151V251.616ZM632.689 213.194L635.863 207.698L632.689 202.202H626.34L623.166 207.698L626.34 213.194H632.689ZM566.086 76.6669L555.628 58.5553H548.109L562.318 83.1626H593.415L607.623 58.5553H600.134L589.676 76.6669H582.363V72.0582H587.013L594.808 58.5494H588.63L583.956 66.6382H572.023L567.35 58.5494H560.93L568.731 72.0582H573.381V76.6669H566.068H566.086ZM560.86 54.07H567.367L572.041 45.9813H575.644V40.4144H568.749L560.86 54.07ZM571.653 56.3156L574.827 61.812H581.176L584.35 56.3156L581.176 50.8193H574.827L571.653 56.3156ZM588.635 54.07H594.902L587.019 40.4144H580.123V45.9813H583.962L588.635 54.07ZM457.757 54.07H464.265L468.938 45.9813H472.542V40.4144H465.646L457.757 54.07ZM462.983 76.6669L452.525 58.5553H445.007L459.215 83.1626H490.312L504.52 58.5553H497.031L486.573 76.6669H479.261V72.0582H483.911L491.705 58.5494H485.527L480.854 66.6382H468.92L464.247 58.5494H457.828L465.628 72.0582H470.278V76.6669H462.966H462.983ZM-94.5836 372.43H-101.479L-109.368 386.086H-102.86L-98.1871 377.997H-94.5836V372.43ZM176.202 54.0642H182.469L174.586 40.4085H167.69V45.9754H171.529L176.202 54.0642ZM-89.0519 393.834L-85.8776 388.337L-89.0519 382.841H-95.4007L-98.5751 388.337L-95.4007 393.834H-89.0519ZM-98.1929 76.5493H-94.5894V70.9824H-101.485L-109.374 84.6381H-102.866L-98.1929 76.5493ZM-75.3257 386.092L-83.2087 372.436H-90.1042V378.003H-86.2655L-81.5922 386.092H-75.3257ZM485.527 54.0642H491.794L483.911 40.4085H477.015V45.9754H480.854L485.527 54.0642ZM-104.136 107.235L-114.594 89.1233H-122.112L-107.904 113.731H-76.8071L-62.5988 89.1233H-70.088L-80.5458 107.235H-87.8586V102.626H-83.2087L-75.4139 89.1175H-81.5922L-86.2655 97.2062H-98.1988L-102.872 89.1175H-109.291L-101.491 102.626H-96.8409V107.235H-104.154H-104.136ZM262.339 56.3097L265.514 61.8061H271.862L275.037 56.3097L271.862 50.8134H265.514L262.339 56.3097ZM251.546 54.0642H258.054L262.727 45.9754H266.331V40.4085H259.435L251.546 54.0642ZM279.322 54.0642H285.589L277.706 40.4085H270.81V45.9754H274.649L279.322 54.0642ZM153.652 76.661L143.195 58.5494H135.676L149.884 83.1567H180.981L195.19 58.5494H187.7L177.243 76.661H169.93V72.0523H174.58L182.375 58.5436H176.196L171.523 66.6323H159.59L154.916 58.5436H148.497L156.298 72.0523H160.948V76.661H153.635H153.652ZM148.426 54.0642H154.934L159.607 45.9754H163.211V40.4085H156.315L148.426 54.0642ZM359.869 76.661L349.411 58.5494H341.893L356.101 83.1567H387.198L401.406 58.5494H393.917L383.459 76.661H376.146V72.0523H380.796L388.591 58.5436H382.413L377.74 66.6323H365.806L361.133 58.5436H354.714L362.514 72.0523H367.164V76.661H359.851H359.869ZM354.643 54.0642H361.151L365.824 45.9754H369.427V40.4085H362.532L354.643 54.0642ZM468.544 56.3097L471.719 61.8061H478.067L481.242 56.3097L478.067 50.8134H471.719L468.544 56.3097ZM382.425 54.0642H388.691L380.808 40.4085H373.913V45.9754H377.751L382.425 54.0642ZM256.772 76.661L246.315 58.5494H238.796L253.004 83.1567H284.101L298.31 58.5494H290.82L280.363 76.661H273.05V72.0523H277.7L285.495 58.5436H279.316L274.643 66.6323H262.71L258.036 58.5436H251.617L259.418 72.0523H264.068V76.661H256.755H256.772ZM365.442 56.3039L368.616 61.8002H374.965L378.139 56.3039L374.965 50.8075H368.616L365.442 56.3039ZM468.544 -4.68524L471.719 0.811127H478.067L481.242 -4.68524L478.067 -10.1816H471.719L468.544 -4.68524ZM-1.03952 48.8088L-11.4973 30.6973H-19.0159L-4.80762 55.3045H26.2895L40.4977 30.6973H33.0086L22.5508 48.8088H15.238V44.2001H19.8878L27.6827 30.6914H21.5044L16.831 38.7802H4.89774L0.224365 30.6914H-6.19493L1.60579 44.2001H6.25566V48.8088H-1.05716H-1.03952ZM45.3239 -6.93081H51.8314L56.5048 -15.0196H60.1083V-20.5865H53.2129L45.3239 -6.93081ZM444.913 234.698H452.431L462.977 216.433H472.53V209.938H459.209L444.913 234.698ZM-52.5525 18.2467L-63.0103 0.135105H-70.5289L-56.3206 24.7424H-25.2235L-11.0153 0.135105H-18.5044L-28.9622 18.2467H-36.2751V13.6379H-31.6252L-23.8303 0.129225H-30.0086L-34.682 8.218H-46.6153L-51.2887 0.129225H-57.7079L-49.9072 13.6379H-45.2574V18.2467H-52.5702H-52.5525ZM50.5499 18.2467L40.0921 0.135105H32.5736L46.7818 24.7424H77.8789L92.0872 0.135105H84.598L74.1402 18.2467H66.8274V13.6379H71.4773L79.2721 0.129225H73.0938L68.4205 8.218H56.4872L51.8138 0.129225H45.3945L53.1952 13.6379H57.8451V18.2467H50.5323H50.5499ZM-6.26547 23.649H0.242004L4.91537 15.5602H8.51888V9.9933H1.62343L-6.26547 23.649ZM4.52739 25.8946L7.70175 31.3909H14.0505L17.2249 25.8946L14.0505 20.3982H7.70175L4.52739 25.8946ZM153.652 18.2467L143.195 0.135105H135.676L149.884 24.7424H180.981L195.19 0.135105H187.7L177.243 18.2467H169.93V13.6379H174.58L182.375 0.129225H176.196L171.523 8.218H159.59L154.916 0.129225H148.497L156.298 13.6379H160.948V18.2467H153.635H153.652ZM159.219 -4.67936L162.394 0.817009H168.742L171.917 -4.67936L168.742 -10.1757H162.394L159.219 -4.67936ZM96.837 23.649H103.344L108.018 15.5602H111.621V9.9933H104.726L96.837 23.649ZM102.063 48.8147L91.6051 30.7031H84.0866L98.2948 55.3104H129.392L143.6 30.7031H136.111L125.653 48.8147H118.34V44.206H122.99L130.785 30.6973H124.607L119.933 38.786H108L103.327 30.6973H96.9075L104.708 44.206H109.358V48.8147H102.045H102.063ZM107.63 25.8887L110.804 31.385H117.153L120.327 25.8887L117.153 20.3923H110.804L107.63 25.8887ZM148.421 -6.92494H154.928L159.601 -15.0137H163.205V-20.5806H156.309L148.421 -6.92494ZM-154.373 113.895L-149.7 105.806H-146.097V100.24L-152.992 100.234L-160.881 113.889L-154.373 113.895ZM-160.881 -6.92494H-154.373L-149.7 -15.0137H-146.097V-20.5806H-152.992L-160.881 -6.92494ZM-154.373 234.704L-149.7 226.615H-146.097V221.048H-152.992L-160.881 234.704H-154.373ZM-154.373 355.518L-149.7 347.429H-146.097V341.862L-152.992 341.856L-160.881 355.512L-154.373 355.518ZM-150.082 -4.67936L-146.908 0.817009H-140.559L-137.385 -4.67936L-140.559 -10.1757H-146.908L-150.082 -4.67936ZM651.729 23.649H659.218L644.922 -1.11113H631.631V5.38457H641.183L651.729 23.649ZM-104.136 48.8147L-114.594 30.7031H-122.112L-107.904 55.3104H-76.8071L-62.5988 30.7031H-70.088L-80.5458 48.8147H-87.8586V44.206H-83.2087L-75.4139 30.6973H-81.5922L-86.2655 38.786H-98.1988L-102.872 30.6973H-109.291L-101.491 44.206H-96.8409V48.8147H-104.154H-104.136ZM-57.7785 -6.92494H-51.271L-46.5976 -15.0137H-42.9941V-20.5806H-49.8896L-57.7785 -6.92494ZM-46.9856 -4.67936L-43.8112 0.817009H-37.4625L-34.2881 -4.67936L-37.4625 -10.1757H-43.8112L-46.9856 -4.67936ZM-109.368 23.649H-102.86L-98.1871 15.5602H-94.5836V9.9933H-101.479L-109.368 23.649ZM-98.5751 25.8946L-95.4007 31.3909H-89.0519L-85.8776 25.8946L-89.0519 20.3982H-95.4007L-98.5751 25.8946ZM-155.655 18.2467L-166.113 0.135105H-173.625L-159.417 24.7424H-128.32L-114.112 0.135105H-121.601L-132.059 18.2467H-139.372V13.6379H-134.722L-126.927 0.129225H-133.105L-137.779 8.218H-149.712L-154.385 0.129225H-160.805L-153.004 13.6379H-148.354V18.2467H-155.667H-155.655ZM560.848 -6.91906H567.355L572.029 -15.0078H575.632V-20.5747H568.737L560.848 -6.91906ZM-1.03952 107.235L-11.4973 89.1233H-19.0159L-4.80762 113.731H26.2895L40.4977 89.1233H33.0086L22.5508 107.235H15.238V102.626H19.8878L27.6827 89.1175H21.5044L16.831 97.2062H4.89774L0.224365 89.1175H-6.19493L1.60579 102.626H6.25566V107.235H-1.05716H-1.03952ZM509.258 23.649H515.766L520.439 15.5602H524.043V9.9933H517.147L509.258 23.649ZM462.971 18.2467L452.514 0.135105H444.995L459.203 24.7424H490.3L504.509 0.135105H497.02L486.562 18.2467H479.249V13.6379H483.899L491.694 0.129225H485.515L480.842 8.218H468.909L464.235 0.129225H457.816L465.617 13.6379H470.267V18.2467H462.954H462.971ZM457.745 -6.91906H464.253L468.926 -15.0078H472.53V-20.5747H465.634L457.745 -6.91906ZM411.382 48.8206L400.924 30.709H393.406L407.614 55.3163H438.711L452.919 30.709H445.43L434.972 48.8206H427.659V44.2119H432.309L440.104 30.7031H433.926L429.253 38.7919H417.319L412.646 30.7031H406.227L414.027 44.2119H418.677V48.8206H411.364H411.382ZM406.156 23.6549H412.664L417.337 15.5661H420.94V9.99918H414.045L406.156 23.6549ZM416.949 25.9004L420.123 31.3968H426.472L429.646 25.9004L426.472 20.4041H420.123L416.949 25.9004ZM571.641 -4.67348L574.815 0.822884H581.164L584.338 -4.67348L581.164 -10.1698H574.815L571.641 -4.67348ZM566.074 18.2525L555.616 0.140982H548.098L562.306 24.7482H593.403L607.611 0.140982H600.122L589.664 18.2525H582.351V13.6438H587.001L594.796 0.135105H588.618L583.944 8.22388H572.011L567.338 0.135105H560.918L568.719 13.6438H573.369V18.2525H566.056H566.074ZM520.057 25.9004L523.232 31.3968H529.58L532.755 25.9004L529.58 20.4041H523.232L520.057 25.9004ZM632.677 92.3859L635.851 86.8895L632.677 81.3932H626.328L623.154 86.8895L626.328 92.3859H632.677ZM514.49 48.8265L504.033 30.7149H496.514L510.722 55.3222H541.819L556.028 30.7149H548.538L538.081 48.8265H530.768V44.2177H535.418L543.213 30.709H537.034L532.361 38.7978H520.428L515.754 30.709H509.335L517.136 44.2177H521.786V48.8265H514.473H514.49ZM262.339 -4.6676L265.514 0.828766H271.862L275.037 -4.6676L271.862 -10.164H265.514L262.339 -4.6676ZM251.546 -6.91318H258.054L262.727 -15.0019H266.331V-20.5689H259.435L251.546 -6.91318ZM199.945 23.6607H206.453L211.126 15.572H214.73V10.0051H207.834L199.945 23.6607ZM210.738 25.9063L213.913 31.4027H220.261L223.436 25.9063L220.261 20.4099H213.913L210.738 25.9063ZM205.171 48.8323L194.713 30.7208H187.195L201.403 55.328H232.5L246.708 30.7208H239.219L228.762 48.8323H221.449V44.2236H226.099L233.893 30.7149H227.715L223.042 38.8037H211.108L206.435 30.7149H200.016L207.817 44.2236H212.466V48.8323H205.154H205.171ZM256.772 18.2584L246.315 0.146862H238.796L253.004 24.7541H284.101L298.31 0.146862H290.82L280.363 18.2584H273.05V13.6497H277.7L285.495 0.140982H279.316L274.643 8.22976H262.71L258.036 0.140982H251.617L259.418 13.6497H264.068V18.2584H256.755H256.772ZM359.875 18.2584L349.417 0.146862H341.898L356.107 24.7541H387.204L401.412 0.146862H393.923L383.465 18.2584H376.152V13.6497H380.802L388.597 0.140982H382.419L377.745 8.22976H365.812L361.139 0.140982H354.719L362.52 13.6497H367.17V18.2584H359.857H359.875ZM303.059 23.6607H309.567L314.24 15.572H317.844V10.0051H310.948L303.059 23.6607ZM354.649 -6.91318H361.156L365.83 -15.0019H369.433V-20.5689H362.538L354.649 -6.91318ZM365.442 -4.6676L368.616 0.828766H374.965L378.139 -4.6676L374.965 -10.164H368.616L365.442 -4.6676ZM313.852 25.9063L317.027 31.4027H323.375L326.55 25.9063L323.375 20.4099H317.027L313.852 25.9063ZM308.285 48.8323L297.828 30.7208H290.309L304.517 55.328H335.614L349.823 30.7208H342.333L331.876 48.8323H324.563V44.2236H329.213L337.008 30.7149H330.829L326.156 38.8037H314.223L309.549 30.7149H303.13L310.931 44.2236H315.581V48.8323H308.268H308.285ZM56.1227 -4.67936L59.2971 0.817009H65.6458L68.8202 -4.67936L65.6458 -10.1757H59.2971L56.1227 -4.67936ZM529.58 213.194L532.755 207.698L529.58 202.202H523.232L520.057 207.698L523.232 213.194H529.58ZM411.388 169.635L400.93 151.523H393.412L407.62 176.131H438.717L452.925 151.523H445.436L434.978 169.635H427.665V165.026H432.315L440.11 151.517H433.932L429.258 159.606H417.325L412.652 151.517H406.232L414.033 165.026H418.683V169.635H411.37H411.388ZM417.337 136.38H420.94V130.813H414.045L406.156 144.469H412.664L417.337 136.38ZM205.171 169.635L194.713 151.523H187.195L201.403 176.131H232.5L246.708 151.523H239.219L228.762 169.635H221.449V165.026H226.099L233.893 151.517H227.715L223.042 159.606H211.108L206.435 151.517H200.016L207.817 165.026H212.466V169.635H205.154H205.171ZM308.285 169.635L297.828 151.523H290.309L304.517 176.131H335.614L349.823 151.523H342.333L331.876 169.635H324.563V165.026H329.213L337.008 151.517H330.829L326.156 159.606H314.223L309.549 151.517H303.13L310.931 165.026H315.581V169.635H308.268H308.285ZM211.12 136.38H214.724V130.813H207.828L199.939 144.469H206.447L211.12 136.38ZM314.234 136.38H317.838V130.813H310.943L303.054 144.469H309.561L314.234 136.38ZM496.432 265.278H503.95L514.496 247.013H524.049V240.517H510.728L496.432 265.278ZM524.049 251.622H517.153L509.264 265.278H515.772L520.445 257.189H524.049V251.622ZM496.432 205.458H503.95L514.496 187.194H524.049V180.698H510.728L496.432 205.458ZM524.049 191.803H517.153L509.264 205.458H515.772L520.445 197.369H524.049V191.803ZM529.586 273.019L532.761 267.523L529.586 262.027H523.237L520.063 267.523L523.237 273.019H529.586ZM464.265 113.901L468.938 105.812H472.542V100.245L465.646 100.24L457.757 113.895L464.265 113.901ZM256.778 139.067L246.321 120.955H238.802L253.01 145.563H284.107L298.316 120.955H290.826L280.369 139.067H273.056V134.458H277.706L285.5 120.949H279.322L274.649 129.038H262.716L258.042 120.949H251.623L259.424 134.458H264.073V139.067H256.761H256.778ZM108.024 136.38H111.627V130.813H104.732L96.8428 144.469H103.35L108.024 136.38ZM359.881 139.067L349.423 120.955H341.904L356.113 145.563H387.21L401.418 120.955H393.929L383.471 139.067H376.158V134.458H380.808L388.603 120.949H382.425L377.751 129.038H365.818L361.145 120.949H354.725L362.526 134.458H367.176V139.067H359.863H359.881ZM258.06 113.901L262.733 105.812H266.337V100.245L259.441 100.24L251.552 113.895L258.06 113.901ZM153.664 139.067L143.206 120.955H135.688L149.896 145.563H180.993L195.201 120.955H187.712L177.254 139.067H169.942V134.458H174.591L182.386 120.949H176.208L171.535 129.038H159.601L154.928 120.949H148.509L156.309 134.458H160.959V139.067H153.646H153.664ZM50.5617 197.487L40.1039 179.375H32.5853L46.7936 203.983H77.8907L92.0989 179.375H84.6098L74.152 197.487H66.8391V192.878H71.489L79.2839 179.37H73.1056L68.4322 187.458H56.4989L51.8255 179.37H45.4062L53.207 192.878H57.8568V197.487H50.544H50.5617ZM361.156 113.901L365.83 105.812H369.433V100.245L362.538 100.24L354.649 113.895L361.156 113.901ZM102.075 169.641L91.6169 151.529H84.0983L98.3066 176.136H129.404L143.612 151.529H136.123L125.665 169.641H118.352V165.032H123.002L130.797 151.523H124.619L119.945 159.612H108.012L103.339 151.523H96.9193L104.72 165.032H109.37V169.641H102.057H102.075ZM4.92125 136.386H8.52475V130.819H1.6293L-6.2596 144.475H0.247864L4.92125 136.386ZM-51.2651 234.715L-46.5918 226.627H-42.9883V221.06H-49.8837L-57.7726 234.715H-51.2651ZM462.983 139.073L452.525 120.961H445.007L459.215 145.568H490.312L504.52 120.961H497.031L486.573 139.073H479.261V134.464H483.911L491.705 120.955H485.527L480.854 129.044H468.92L464.247 120.955H457.828L465.628 134.464H470.278V139.073H462.966H462.983ZM-1.02776 169.647L-11.4855 151.535H-19.0041L-4.79585 176.142H26.3012L40.5095 151.535H33.0203L22.5625 169.647H15.2497V165.038H19.8996L27.6944 151.529H21.5162L16.8428 159.618H4.90948L0.236115 151.529H-6.18318L1.61755 165.038H6.26743V169.647H-1.04539H-1.02776ZM14.0623 273.025L17.2366 267.529L14.0623 262.033H7.71353L4.53915 267.529L7.71353 273.025H14.0623ZM308.297 228.067L297.839 209.955H290.321L304.529 234.563H335.626L349.834 209.955H342.345L331.888 228.067H324.575V223.458H329.225L337.019 209.949H330.841L326.168 218.038H314.234L309.561 209.949H303.142L310.943 223.458H315.592V228.067H308.28H308.297ZM205.183 228.067L194.725 209.955H187.207L201.415 234.563H232.512L246.72 209.955H239.231L228.773 228.067H221.46V223.458H226.11L233.905 209.949H227.727L223.054 218.038H211.12L206.447 209.949H200.028L207.828 223.458H212.478V228.067H205.165H205.183ZM211.132 197.381H214.736V191.814H207.84L199.951 205.47H206.459L211.132 197.381ZM108.03 197.381H111.633V191.814H104.738L96.8487 205.47H103.356L108.03 197.381ZM4.92714 197.381H8.53062V191.814H1.63519L-6.25372 205.47H0.253754L4.92714 197.381ZM102.081 228.067L91.6228 209.955H84.1042L98.3125 234.563H129.41L143.618 209.955H136.129L125.671 228.067H118.358V223.458H123.008L130.803 209.949H124.624L119.951 218.038H108.018L103.344 209.949H96.9251L104.726 223.458H109.376V228.067H102.063H102.081ZM56.5166 166.807H60.1201V161.24H53.2246L45.3357 174.896H51.8432L56.5166 166.807ZM-1.02188 228.067L-11.4797 209.955H-18.9982L-4.78999 234.563H26.3071L40.5154 209.955H33.0262L22.5684 228.067H15.2556V223.458H19.9055L27.7003 209.949H21.522L16.8487 218.038H4.91537L0.242004 209.949H-6.17729L1.62343 223.458H6.27328V228.067H-1.03952H-1.02188ZM471.73 242.457H478.079L481.253 236.961L478.079 231.465H471.73L468.556 236.961L471.73 242.457ZM411.4 228.067L400.942 209.955H393.423L407.632 234.563H438.729L452.937 209.955H445.448L434.99 228.067H427.677V223.458H432.327L440.122 209.949H433.944L429.27 218.038H417.337L412.664 209.949H406.244L414.045 223.458H418.695V228.067H411.382H411.4ZM314.246 197.381H317.85V191.814H310.954L303.065 205.47H309.573L314.246 197.381ZM417.349 197.381H420.952V191.814H414.057L406.168 205.47H412.675L417.349 197.381ZM464.271 234.721L468.944 226.632H472.547V221.066H465.652L457.763 234.721H464.271ZM256.784 197.499L246.326 179.387H238.808L253.016 203.994H284.113L298.321 179.387H290.832L280.374 197.499H273.062V192.89H277.712L285.506 179.381H279.328L274.655 187.47H262.721L258.048 179.381H251.629L259.43 192.89H264.079V197.499H256.767H256.784ZM262.733 166.813H266.337V161.246H259.441L251.552 174.902H258.06L262.733 166.813ZM159.619 166.813H163.223V161.246H156.327L148.438 174.902H154.946L159.619 166.813ZM359.887 197.499L349.429 179.387H341.91L356.119 203.994H387.216L401.424 179.387H393.935L383.477 197.499H376.164V192.89H380.814L388.609 179.381H382.431L377.757 187.47H365.824L361.151 179.381H354.731L362.532 192.89H367.182V197.499H359.869H359.887ZM153.67 197.499L143.212 179.387H135.694L149.902 203.994H180.999L195.207 179.387H187.718L177.26 197.499H169.947V192.89H174.597L182.392 179.381H176.214L171.541 187.47H159.607L154.934 179.381H148.515L156.315 192.89H160.965V197.499H153.652H153.67ZM27.8002 265.289L19.9172 251.634H13.0218V257.201H16.8604L21.5338 265.289H27.8002ZM154.951 113.907L159.625 105.818H163.228V100.251L156.333 100.245L148.444 113.901L154.951 113.907ZM365.841 166.807H369.445V161.24H362.55L354.661 174.896H361.168L365.841 166.807ZM8.5365 251.628H1.64105L-6.24783 265.283H0.259628L4.933 257.195H8.5365V251.628ZM462.995 197.493L452.537 179.381H445.019L459.227 203.989H490.324L504.532 179.381H497.043L486.585 197.493H479.272V192.884H483.922L491.717 179.375H485.539L480.865 187.464H468.932L464.259 179.375H457.84L465.64 192.884H470.29V197.493H462.977H462.995ZM468.944 166.807H472.547V161.24H465.652L457.763 174.896H464.271L468.944 166.807ZM417.354 76.5611H420.958V70.9941H414.063L406.174 84.6498H412.681L417.354 76.5611ZM575.65 161.24H568.754L560.866 174.896H567.373L572.046 166.807H575.65V161.24ZM567.373 113.907L572.046 105.818H575.65V100.251L568.754 100.245L560.866 113.901L567.373 113.907ZM581.182 231.465H574.833L571.658 236.961L574.833 242.457H581.182L584.356 236.961L581.182 231.465ZM575.644 226.627V221.06H568.749L560.86 234.715H567.367L572.041 226.627H575.644ZM548.027 113.901L555.546 113.907L566.091 95.6426H575.644V89.1469L562.323 89.141L548.027 113.901ZM581.176 182.638L584.35 177.142L581.176 171.645H574.827L571.653 177.142L574.827 182.638H581.176ZM548.027 174.896H555.546L566.091 156.632H575.644V150.136H562.323L548.027 174.896ZM548.027 234.715H555.546L566.091 216.451H575.644V209.955H562.323L548.027 234.715ZM581.176 352.273H574.827L571.653 357.769V357.775L574.827 363.272H581.176L584.35 357.775V357.769L581.176 352.273ZM548.027 295.704H555.546L566.091 277.44H575.644V270.944H562.323L548.027 295.704ZM575.644 282.049H568.749L560.86 295.704H567.367L572.041 287.616H575.644V282.049ZM581.182 303.446L584.356 297.95L581.182 292.454H574.833L571.658 297.95L574.833 303.446H581.182ZM205.171 107.235L194.713 89.1233H187.195L201.403 113.731H232.5L246.708 89.1233H239.219L228.762 107.235H221.449V102.626H226.099L233.893 89.1175H227.715L223.042 97.2062H211.108L206.435 89.1175H200.016L207.817 102.626H212.466V107.235H205.154H205.171ZM211.12 76.5493H214.724V70.9824H207.828L199.939 84.6381H206.447L211.12 76.5493ZM308.285 107.235L297.828 89.1233H290.309L304.517 113.731H335.614L349.823 89.1233H342.333L331.876 107.235H324.563V102.626H329.213L337.008 89.1175H330.829L326.156 97.2062H314.223L309.549 89.1175H303.13L310.931 102.626H315.581V107.235H308.268H308.285ZM50.5558 139.061L40.098 120.949H32.5794L46.7877 145.557H77.8848L92.093 120.949H84.6039L74.1461 139.061H66.8333V134.452H71.4831L79.278 120.944H73.0997L68.4263 129.032H56.493L51.8197 120.944H45.4004L53.2011 134.452H57.851V139.061H50.5382H50.5558ZM581.17 110.633H574.821L571.647 116.129V116.135L574.821 121.631H581.17L584.344 116.135V116.129L581.17 110.633ZM102.075 107.235L91.6169 89.1233H84.0983L98.3066 113.731H129.404L143.612 89.1233H136.123L125.665 107.235H118.352V102.626H123.002L130.797 89.1175H124.619L119.945 97.2062H108.012L103.339 89.1175H96.9193L104.72 102.626H109.37V107.235H102.057H102.075ZM108.024 76.5493H111.627V70.9824H104.732L96.8428 84.6381H103.35L108.024 76.5493ZM520.445 76.5493H524.049V70.9824H517.153L509.264 84.6381H515.772L520.445 76.5493ZM314.24 76.5493H317.844V70.9824H310.948L303.059 84.6381H309.567L314.24 76.5493ZM514.496 107.235L504.038 89.1233H496.52L510.728 113.731H541.825L556.033 89.1233H548.544L538.086 107.235H530.774V102.626H535.424L543.218 89.1175H537.04L532.367 97.2062H520.433L515.76 89.1175H509.341L517.141 102.626H521.791V107.235H514.479H514.496ZM4.91537 76.5493H8.51888V70.9824H1.62343L-6.26547 84.6381H0.242004L4.91537 76.5493ZM411.388 107.235L400.93 89.1233H393.412L407.62 113.731H438.717L452.925 89.1233H445.436L434.978 107.235H427.665V102.626H432.315L440.11 89.1175H433.932L429.258 97.2062H417.325L412.652 89.1175H406.232L414.033 102.626H418.683V107.235H411.37H411.388ZM567.355 355.518L572.029 347.429H575.632V341.862L568.737 341.856L560.848 355.512L567.355 355.518ZM-37.4625 352.255H-43.8112L-46.9856 357.752V357.758L-43.8112 363.254H-37.4625L-34.2881 357.758V357.752L-37.4625 352.255ZM548.015 355.506L555.534 355.512L566.08 337.248H575.632V330.752L562.312 330.746L548.015 355.506ZM65.64 352.255H59.2912L56.1168 357.752V357.758L59.2912 363.254H65.64L68.8143 357.758V357.752L65.64 352.255ZM-25.2235 330.746H-38.5147V337.242L-28.9622 337.248L-18.4163 355.512H-10.9271V355.506L-25.2235 330.746ZM71.4831 341.85H64.5877V347.417L68.4263 347.423L73.0997 355.512H79.3661V355.506L71.4831 341.85ZM77.8789 330.746H64.5877V337.242L74.1402 337.248L84.6862 355.512H92.1754V355.506L77.8789 330.746ZM-63.0985 234.698L-52.5525 216.433H-43V209.938H-56.3206L-70.6171 234.698H-63.0985ZM-52.5525 139.055L-63.0103 120.944H-70.5289L-56.3206 145.551H-25.2235L-11.0153 120.944H-18.5044L-28.9622 139.055H-36.2751V134.446H-31.6252L-23.8303 120.938H-30.0086L-34.682 129.026H-46.6153L-51.2887 120.938H-57.7079L-49.9072 134.446H-45.2574V139.055H-52.5702H-52.5525ZM-63.0985 355.512L-52.5525 337.248H-43V330.752L-56.3206 330.746L-70.6171 355.506L-63.0985 355.512ZM51.8314 113.883L56.5048 105.795H60.1083V100.228L53.2129 100.222L45.3239 113.878L51.8314 113.883ZM-51.271 113.883L-46.5976 105.795H-42.9941V100.228L-49.8896 100.222L-57.7785 113.878L-51.271 113.883ZM168.742 352.249H162.394L159.219 357.746V357.752L162.394 363.248H168.742L171.917 357.752V357.746L168.742 352.249ZM-31.6193 341.845H-38.5147V347.411L-34.6761 347.417L-30.0027 355.506H-23.7363V355.5L-31.6193 341.845ZM387.198 330.74H373.907V337.236L383.459 337.242L394.005 355.506H401.494V355.5L387.198 330.74ZM478.061 352.249H471.713L468.538 357.746V357.752L471.713 363.248H478.061L481.236 357.752V357.746L478.061 352.249ZM490.306 330.74H477.015V337.236L486.568 337.242L497.114 355.506H504.603V355.5L490.306 330.74ZM483.911 341.845H477.015V347.411L480.854 347.417L485.527 355.506H491.794V355.5L483.911 341.845ZM380.808 341.845H373.913V347.411L377.751 347.417L382.425 355.506H388.691V355.5L380.808 341.845ZM277.706 341.845H270.81V347.411L274.649 347.417L279.322 355.506H285.589V355.5L277.706 341.845ZM180.987 330.74H167.696V337.236L177.249 337.242L187.794 355.506H195.284V355.5L180.987 330.74ZM271.862 352.249H265.514L262.339 357.746V357.752L265.514 363.248H271.862L275.037 357.752V357.746L271.862 352.249ZM174.591 341.845H167.696V347.411L171.535 347.417L176.208 355.506H182.474V355.5L174.591 341.845ZM374.965 352.249H368.616L365.442 357.746V357.752L368.616 363.248H374.965L378.139 357.752V357.746L374.965 352.249ZM284.107 330.74H270.816V337.236L280.369 337.242L290.915 355.506H298.404V355.5L284.107 330.74ZM468.55 116.117V116.123L471.724 121.62H478.073L481.248 116.123V116.117L478.073 110.621H471.724L468.55 116.117ZM529.586 454.811L532.761 449.315L529.586 443.818H523.237L520.063 449.315L523.237 454.811H529.586ZM490.312 445.594L504.52 420.986H497.031L486.573 439.098H479.261V434.489H483.911L491.705 420.98H485.527L480.854 429.069H468.92L464.247 420.98H457.828L465.628 434.489H470.278V439.098H462.966L452.508 420.986H444.989L459.198 445.594H490.295H490.312ZM632.683 454.811L635.857 449.315L632.683 443.818H626.334L623.16 449.315L626.334 454.811H632.683ZM514.496 428.805H524.049V422.309H510.728L496.432 447.069H503.95L514.496 428.805ZM453.019 447.069L438.723 422.309H425.432V428.805H434.984L445.53 447.069H453.019ZM440.21 447.069L432.327 433.413H425.432V438.98H429.27L433.944 447.069H440.21ZM543.312 447.069L535.429 433.413H528.534V438.98H532.373L537.046 447.069H543.312ZM623.542 438.98H627.145V433.413H620.25L612.361 447.069H618.868L623.542 438.98ZM617.593 428.805H627.145V422.309H613.825L599.528 447.069H607.047L617.593 428.805ZM426.478 454.811L429.652 449.315L426.478 443.818H420.129L416.955 449.315L420.129 454.811H426.478ZM556.122 447.069L541.825 422.309H528.534V428.805H538.086L548.633 447.069H556.122ZM593.415 445.594L607.623 420.986H600.134L589.676 439.098H582.363V434.489H587.013L594.808 420.98H588.63L583.956 429.069H572.023L567.35 420.98H560.93L568.731 434.489H573.381V439.098H566.068L555.61 420.986H548.092L562.3 445.594H593.397H593.415ZM520.445 438.98H524.049V433.413H517.153L509.264 447.069H515.772L520.445 438.98ZM284.107 445.594L298.316 420.986H290.826L280.369 439.098H273.056V434.489H277.706L285.5 420.98H279.322L274.649 429.069H262.716L258.042 420.98H251.623L259.424 434.489H264.073V439.098H256.761L246.303 420.986H238.784L252.993 445.594H284.09H284.107ZM246.803 447.069L232.506 422.309H219.215V428.805H228.767L239.313 447.069H246.803ZM314.24 438.98H317.844V433.413H310.948L303.059 447.069H309.567L314.24 438.98ZM308.291 428.805H317.844V422.309H304.523L290.227 447.069H297.745L308.291 428.805ZM220.261 454.811L223.436 449.315L220.261 443.818H213.913L210.738 449.315L213.913 454.811H220.261ZM233.993 447.069L226.11 433.413H219.215V438.98H223.054L227.727 447.069H233.993ZM349.917 447.069L335.62 422.309H322.329V428.805H331.882L342.428 447.069H349.917ZM411.394 428.805H420.946V422.309H407.626L393.329 447.069H400.848L411.394 428.805ZM387.21 445.594L401.418 420.986H393.929L383.471 439.098H376.158V434.489H380.808L388.603 420.98H382.425L377.751 429.069H365.818L361.145 420.98H354.725L362.526 434.489H367.176V439.098H359.863L349.405 420.986H341.887L356.095 445.594H387.192H387.21ZM211.126 438.98H214.73V433.413H207.834L199.945 447.069H206.453L211.126 438.98ZM323.381 454.811L326.556 449.315L323.381 443.818H317.033L313.858 449.315L317.033 454.811H323.381ZM337.113 447.069L329.23 433.413H322.335V438.98H326.174L330.847 447.069H337.113ZM417.343 438.98H420.946V433.413H414.051L406.162 447.069H412.669L417.343 438.98ZM623.16 25.8887L626.334 31.385H632.683L635.857 25.8887L632.683 20.3923H626.334L623.16 25.8887ZM640.143 23.6431H646.409L638.526 9.98742H631.631V15.5543H635.469L640.143 23.6431ZM600.216 -6.93081H607.705L593.409 -31.6909H580.118V-25.1952H589.67L600.216 -6.93081ZM646.409 447.075L638.526 433.419H631.631V438.986H635.469L640.143 447.075H646.409ZM612.361 23.6431H618.868L623.542 15.5543H627.145V9.98742H620.25L612.361 23.6431ZM631.625 70.9765V76.5434H635.463L640.137 84.6322H646.403L638.52 70.9765H631.625ZM659.124 30.7031H651.635L641.177 48.8147H633.864V44.206H638.514L646.309 30.6973H640.131L635.457 38.786H623.524L618.851 30.6973H612.431L620.232 44.206H624.882V48.8147H617.569L607.112 30.7031H599.593L613.801 55.3104H644.898L659.107 30.7031H659.124ZM503.938 23.649L514.484 5.38457H524.037V-1.11113H510.716L496.42 23.649H503.938ZM588.624 -6.92494H594.89L587.007 -20.5806H580.112V-15.0137H583.95L588.624 -6.92494ZM537.034 23.649H543.301L535.418 9.9933H528.522V15.5602H532.361L537.034 23.649ZM548.621 23.649H556.11L541.813 -1.11113H528.522V5.38457H538.075L548.621 23.649ZM566.068 -25.1893H575.62V-31.685H562.3L548.003 -6.92494H555.522L566.068 -25.1893ZM607.035 23.649L617.581 5.38457H627.133V-1.11113H613.813L599.516 23.649H607.035ZM659.118 330.752H651.629L641.171 348.863H633.859V344.255H638.508L646.303 330.746H640.125L635.452 338.835H623.518L618.845 330.746H612.426L620.226 344.255H624.876V348.863H617.563L607.106 330.752H599.587L613.795 355.359H644.892L659.101 330.752H659.118ZM659.118 272.332H651.629L641.171 290.443H633.859V285.835H638.508L646.303 272.326H640.125L635.452 280.415H623.518L618.845 272.326H612.426L620.226 285.835H624.876V290.443H617.563L607.106 272.332H599.587L613.795 296.939H644.892L659.101 272.332H659.118ZM659.118 89.1292H651.629L641.171 107.241H633.859V102.632H638.508L646.303 89.1233H640.125L635.452 97.2121H623.518L618.845 89.1233H612.426L620.226 102.632H624.876V107.241H617.563L607.106 89.1292H599.587L613.795 113.736H644.892L659.101 89.1292H659.118ZM659.118 393.152H651.629L641.171 411.263H633.859V406.655H638.508L646.303 393.146H640.125L635.452 401.235H623.518L618.845 393.146H612.426L620.226 406.655H624.876V411.263H617.563L607.106 393.152H599.587L613.795 417.759H644.892L659.101 393.152H659.118ZM631.619 372.436V378.003H635.457L640.131 386.092H646.397L638.514 372.436H631.619ZM631.619 312.611V318.178H635.457L640.131 326.267H646.397L638.514 312.611H631.619ZM631.619 130.813V136.38H635.457L640.131 144.469H646.397L638.514 130.813H631.619ZM659.118 151.529H651.629L641.171 169.641H633.859V165.032H638.508L646.303 151.523H640.125L635.452 159.612H623.518L618.845 151.523H612.426L620.226 165.032H624.876V169.641H617.563L607.106 151.529H599.587L613.795 176.136H644.892L659.101 151.529H659.118ZM631.619 251.628V257.195H635.457L640.131 265.283H646.397L638.514 251.628H631.619ZM659.118 209.955H651.629L641.171 228.067H633.859V223.458H638.508L646.303 209.949H640.125L635.452 218.038H623.518L618.845 209.949H612.426L620.226 223.458H624.876V228.067H617.563L607.106 209.955H599.587L613.795 234.563H644.892L659.101 209.955H659.118ZM631.619 191.808V197.375H635.457L640.131 205.464H646.397L638.514 191.808H631.619ZM-63.0985 54.0642L-52.5525 35.7998H-43V29.3041H-56.3206L-70.6171 54.0642H-63.0985ZM-155.649 197.481L-166.107 179.37H-173.625L-159.417 203.977H-128.32L-114.112 179.37H-121.601L-132.059 197.481H-139.372V192.872H-134.722L-126.927 179.364H-133.105L-137.779 187.452H-149.712L-154.385 179.364H-160.805L-153.004 192.872H-148.354V197.481H-155.667H-155.649ZM-133.099 234.704H-126.833L-134.716 221.048H-141.611V226.615H-137.773L-133.099 234.704ZM-150.082 236.949L-146.908 242.446H-140.559L-137.385 236.949L-140.559 231.453H-146.908L-150.082 236.949ZM-160.875 174.884H-154.368L-149.694 166.796H-146.091V161.229H-152.986L-160.875 174.884ZM-150.082 177.13L-146.908 182.626H-140.559L-137.385 177.13L-140.559 171.634H-146.908L-150.082 177.13ZM-133.099 174.884H-126.833L-134.716 161.229H-141.611V166.796H-137.773L-133.099 174.884ZM-133.099 295.693H-126.833L-134.716 282.037H-141.611V287.604H-137.773L-133.099 295.693ZM-160.875 295.693H-154.368L-149.694 287.604H-146.091V282.037H-152.986L-160.875 295.693ZM-155.649 318.29L-166.107 300.178H-173.625L-159.417 324.785H-128.32L-114.112 300.178H-121.601L-132.059 318.29H-139.372V313.681H-134.722L-126.927 300.172H-133.105L-137.779 308.261H-149.712L-154.385 300.172H-160.805L-153.004 313.681H-148.354V318.29H-155.667H-155.649ZM-150.082 297.932L-146.908 303.429H-140.559L-137.385 297.932L-140.559 292.436H-146.908L-150.082 297.932ZM-155.649 259.869L-166.107 241.758H-173.625L-159.417 266.365H-128.32L-114.112 241.758H-121.601L-132.059 259.869H-139.372V255.261H-134.722L-126.927 241.752H-133.105L-137.779 249.841H-149.712L-154.385 241.752H-160.805L-153.004 255.261H-148.354V259.869H-155.667H-155.649ZM-155.649 139.061L-166.107 120.949H-173.625L-159.417 145.557H-128.32L-114.112 120.949H-121.601L-132.059 139.061H-139.372V134.452H-134.722L-126.927 120.944H-133.105L-137.779 129.032H-149.712L-154.385 120.944H-160.805L-153.004 134.452H-148.354V139.061H-155.667H-155.649ZM-133.099 54.0642H-126.833L-134.716 40.4085H-141.611V45.9754H-137.773L-133.099 54.0642ZM-150.082 116.129V116.135L-146.908 121.631H-140.559L-137.385 116.135V116.129L-140.559 110.633H-146.908L-150.082 116.129ZM-38.5089 29.3041V35.7998H-28.9564L-18.4104 54.0642H-10.9212L-25.2177 29.3041H-38.5089ZM497.12 -6.92494H504.609L490.312 -31.685H477.021V-25.1893H486.573L497.12 -6.92494ZM40.0098 54.0642L50.5558 35.7998H60.1083V29.3041H46.7877L32.4913 54.0642H40.0098ZM64.5936 29.3041V35.7998H74.1461L84.692 54.0642H92.1812L77.8848 29.3041H64.5936ZM-141.611 29.3041V35.7998H-132.059L-121.513 54.0642H-114.024L-128.32 29.3041H-141.611ZM-155.649 76.6669L-166.107 58.5553H-173.625L-159.417 83.1626H-128.32L-114.112 58.5553H-121.601L-132.059 76.6669H-139.372V72.0582H-134.722L-126.927 58.5494H-133.105L-137.779 66.6382H-149.712L-154.385 58.5494H-160.805L-153.004 72.0582H-148.354V76.6669H-155.667H-155.649ZM-133.099 355.524H-126.833V355.518L-134.716 341.862H-141.611V347.429L-137.773 347.435L-133.099 355.524ZM-133.099 113.895H-126.833V113.889L-134.716 100.234H-141.611V105.801L-137.773 105.806L-133.099 113.895ZM-160.875 54.07H-154.368L-149.694 45.9813H-146.091V40.4144H-152.986L-160.875 54.07ZM-150.082 56.3156L-146.908 61.812H-140.559L-137.385 56.3156L-140.559 50.8193H-146.908L-150.082 56.3156ZM143.112 54.07L153.658 35.8056H163.211V29.3099H149.89L135.594 54.07H143.112ZM27.7885 447.087L19.9055 433.431H13.01V438.998H16.8487L21.522 447.087H27.7885ZM40.5977 447.087L26.3012 422.327H13.01V428.822H22.5625L33.1085 447.087H40.5977ZM77.8907 445.611L92.0989 421.004H84.6098L74.152 439.116H66.8391V434.507H71.489L79.2839 420.998H73.1056L68.4322 429.087H56.4989L51.8255 420.998H45.4062L53.207 434.507H57.8568V439.116H50.544L40.0862 421.004H32.5677L46.7759 445.611H77.873H77.8907ZM14.0564 454.829L17.2308 449.332L14.0564 443.836H7.70764L4.53326 449.332L7.70764 454.829H14.0564ZM102.075 428.822H111.627V422.327H98.3066L84.0102 447.087H91.5287L102.075 428.822ZM-1.02776 428.822H8.52475V422.327H-4.79585L-19.0923 447.087H-11.5737L-1.02776 428.822ZM4.92125 438.998H8.52475V433.431H1.6293L-6.2596 447.087H0.247864L4.92125 438.998ZM180.993 445.611L195.201 421.004H187.712L177.254 439.116H169.942V434.507H174.591L182.386 420.998H176.208L171.535 429.087H159.601L154.928 420.998H148.509L156.309 434.507H160.959V439.116H153.646L143.189 421.004H135.67L149.878 445.611H180.975H180.993ZM108.024 438.998H111.627V433.431H104.732L96.8428 447.087H103.35L108.024 438.998ZM143.7 447.087L129.404 422.327H116.112V428.822H125.665L136.211 447.087H143.7ZM130.891 447.087L123.008 433.431H116.112V438.998H119.951L124.624 447.087H130.891ZM117.159 454.829L120.333 449.332L117.159 443.836H110.81L107.636 449.332L110.81 454.829H117.159ZM-155.649 380.689L-166.107 362.578H-173.625L-159.417 387.185H-128.32L-114.112 362.578H-121.601L-132.059 380.689H-139.372V376.081H-134.722L-126.927 362.572H-133.105L-137.779 370.661H-149.712L-154.385 362.572H-160.805L-153.004 376.081H-148.354V380.689H-155.667H-155.649ZM-155.649 439.11L-166.107 420.998H-173.625L-159.417 445.605H-128.32L-114.112 420.998H-121.601L-132.059 439.11H-139.372V434.501H-134.722L-126.927 420.992H-133.105L-137.779 429.081H-149.712L-154.385 420.992H-160.805L-153.004 434.501H-148.354V439.11H-155.667H-155.649ZM-160.875 416.513H-154.368L-149.694 408.424H-146.091V402.857H-152.986L-160.875 416.513ZM-150.082 418.758L-146.908 424.255H-140.559L-137.385 418.758L-140.559 413.262H-146.908L-150.082 418.758ZM-133.099 416.513H-126.833L-134.716 402.857H-141.611V408.424H-137.773L-133.099 416.513ZM-150.082 357.758V357.763L-146.908 363.26H-140.559L-137.385 357.763V357.758L-140.559 352.261H-146.908L-150.082 357.758ZM205.171 428.816H214.724V422.321H201.403L187.107 447.081H194.625L205.171 428.816ZM-75.314 447.081L-83.197 433.425H-90.0924V438.992H-86.2538L-81.5804 447.081H-75.314ZM-62.5048 447.081L-76.8012 422.321H-90.0924V428.816H-80.5399L-69.9939 447.081H-62.5048ZM-25.2118 445.605L-11.0035 420.998H-18.4927L-28.9505 439.11H-36.2633V434.501H-31.6134L-23.8186 420.992H-29.9969L-34.6702 429.081H-46.6035L-51.2769 420.992H-57.6962L-49.8955 434.501H-45.2456V439.11H-52.5584L-63.0162 420.998H-70.5348L-56.3265 445.605H-25.2294H-25.2118ZM-89.0402 454.823L-85.8658 449.326L-89.0402 443.83H-95.3889L-98.5633 449.326L-95.3889 454.823H-89.0402ZM-104.13 428.816H-94.5777V422.321H-107.898L-122.195 447.081H-114.676L-104.13 428.816ZM-98.1812 438.992H-94.5777V433.425H-101.473L-109.362 447.081H-102.855L-98.1812 438.992ZM167.702 451.566V458.062H177.254L187.8 476.326H195.29L180.993 451.566H167.702ZM266.331 458.062V451.566H253.01L238.714 476.326H246.232L256.778 458.062H266.331ZM167.702 462.671V468.237H171.541L176.214 476.326H182.48L174.597 462.671H167.702ZM239.225 451.566L228.767 469.678H221.455V465.069H226.104L233.899 451.56H227.721L223.048 459.649H211.114L206.441 451.56H200.022L207.822 465.069H212.472V469.678H205.159L194.702 451.566H187.183L201.391 476.173H232.488L246.697 451.566H239.208H239.225ZM163.217 468.237V462.671H156.321L148.432 476.326H154.94L159.613 468.237H163.217ZM162.405 473.075L159.231 478.572L162.405 484.068H168.754L171.928 478.572L168.754 473.075H162.405ZM270.822 451.566V458.062H280.374L290.92 476.326H298.41L284.113 451.566H270.822ZM163.217 458.062V451.566H149.896L135.6 476.326H143.118L153.664 458.062H163.217ZM342.345 451.566L331.888 469.678H324.575V465.069H329.225L337.019 451.56H330.841L326.168 459.649H314.234L309.561 451.56H303.142L310.943 465.069H315.592V469.678H308.28L297.822 451.566H290.303L304.511 476.173H335.609L349.817 451.566H342.328H342.345ZM270.822 462.671V468.237H274.661L279.334 476.326H285.6L277.717 462.671H270.822ZM369.439 458.062V451.566H356.119L341.822 476.326H349.341L359.887 458.062H369.439ZM266.337 468.237V462.671H259.441L251.552 476.326H258.06L262.733 468.237H266.337ZM265.525 473.075L262.351 478.572L265.525 484.068H271.874L275.049 478.572L271.874 473.075H265.525ZM136.129 451.566L125.671 469.678H118.358V465.069H123.008L130.803 451.56H124.624L119.951 459.649H108.018L103.344 451.56H96.9251L104.726 465.069H109.376V469.678H102.063L91.6051 451.566H84.0866L98.2948 476.173H129.392L143.6 451.566H136.111H136.129ZM-43.7995 473.075L-46.9739 478.572L-43.7995 484.068H-37.4507L-34.2764 478.572L-37.4507 473.075H-43.7995ZM-38.503 451.566V458.062H-28.9505L-18.4045 476.326H-10.9153L-25.2118 451.566H-38.503ZM-38.503 462.671V468.237H-34.6644L-29.991 476.326H-23.7245L-31.6075 462.671H-38.503ZM-70.0762 451.566L-80.534 469.678H-87.8468V465.069H-83.197L-75.4021 451.56H-81.5804L-86.2538 459.649H-98.1871L-102.86 451.56H-109.28L-101.479 465.069H-96.8291V469.678H-104.142L-114.6 451.566H-122.118L-107.91 476.173H-76.813L-62.6047 451.566H-70.0939H-70.0762ZM-42.9883 468.237V462.671H-49.8837L-57.7726 476.326H-51.2651L-46.5918 468.237H-42.9883ZM33.0203 451.566L22.5625 469.678H15.2497V465.069H19.8996L27.6944 451.56H21.5162L16.8428 459.649H4.90948L0.236115 451.56H-6.18318L1.61755 465.069H6.26743V469.678H-1.04539L-11.5032 451.566H-19.0218L-4.81349 476.173H26.2836L40.4919 451.566H33.0027H33.0203ZM64.5994 451.566V458.062H74.152L84.6979 476.326H92.1871L77.8907 451.566H64.5994ZM60.1142 458.062V451.566H46.7936L32.4971 476.326H40.0157L50.5617 458.062H60.1142ZM64.5994 462.671V468.237H68.4381L73.1115 476.326H79.3779L71.4949 462.671H64.5994ZM59.303 473.075L56.1286 478.572L59.303 484.068H65.6517L68.8261 478.572L65.6517 473.075H59.303ZM60.1142 468.237V462.671H53.2188L45.3298 476.326H51.8373L56.5107 468.237H60.1142ZM-42.9883 458.062V451.566H-56.3089L-70.6053 476.326H-63.0867L-52.5408 458.062H-42.9883ZM641.195 469.678H633.882V465.069H638.532L646.327 451.56H640.148L635.475 459.649H623.542L618.868 451.56H612.449L620.25 465.069H624.9V469.678H617.587L607.129 451.566H599.611L613.819 476.173H644.916L659.124 451.566H651.635L641.177 469.678H641.195ZM580.129 451.566V458.062H589.682L600.228 476.326H607.717L593.421 451.566H580.129ZM631.642 422.315V428.811H641.195L651.741 447.075H659.23L644.934 422.315H631.642ZM580.129 462.665V468.232H583.968L588.641 476.32H594.908L587.025 462.665H580.129ZM574.833 473.07L571.658 478.566L574.833 484.062H581.182L584.356 478.566L581.182 473.07H574.833ZM575.644 468.232V462.665H568.749L560.86 476.32H567.367L572.041 468.232H575.644ZM631.642 361.32V367.816H641.195L651.741 386.08H659.23L644.934 361.32H631.642ZM631.642 59.8662V66.3619H641.195L651.741 84.6263H659.23L644.934 59.8662H631.642ZM631.642 119.691V126.187H641.195L651.741 144.451H659.23L644.934 119.691H631.642ZM631.642 301.489V307.985H641.195L651.741 326.249H659.23L644.934 301.489H631.642ZM631.642 240.5V246.995H641.195L651.741 265.26H659.23L644.934 240.5H631.642ZM631.642 180.68V187.176H641.195L651.741 205.441H659.23L644.934 180.68H631.642ZM373.924 451.554V458.05H383.477L394.023 476.314H401.512L387.216 451.554H373.924ZM369.439 468.226V462.659H362.544L354.655 476.314H361.162L365.836 468.226H369.439ZM575.644 458.05V451.554H562.323L548.027 476.314H555.546L566.091 458.05H575.644ZM445.448 451.554L434.99 469.666H427.677V465.057H432.327L440.122 451.548H433.944L429.27 459.637H417.337L412.664 451.548H406.244L414.045 465.057H418.695V469.666H411.382L400.924 451.554H393.406L407.614 476.162H438.711L452.919 451.554H445.43H445.448ZM368.622 473.064L365.448 478.56L368.622 484.056H374.971L378.145 478.56L374.971 473.064H368.622ZM373.919 462.659V468.226H377.757L382.431 476.314H388.697L380.814 462.659H373.919ZM472.536 458.05V451.554H459.215L444.919 476.314H452.437L462.983 458.05H472.536ZM477.021 451.554V458.05H486.573L497.12 476.314H504.609L490.312 451.554H477.021ZM548.544 451.554L538.086 469.666H530.774V465.057H535.424L543.218 451.548H537.04L532.367 459.637H520.433L515.76 451.548H509.341L517.141 465.057H521.791V469.666H514.479L504.021 451.554H496.502L510.711 476.162H541.808L556.016 451.554H548.527H548.544ZM472.536 468.226V462.659H465.64L457.751 476.314H464.259L468.932 468.226H472.536ZM485.533 -6.93669H491.799L483.916 -20.5924H477.021V-15.0255H480.86L485.533 -6.93669ZM471.724 473.064L468.55 478.56L471.724 484.056H478.073L481.248 478.56L478.073 473.064H471.724ZM477.021 462.659V468.226H480.86L485.533 476.314H491.799L483.916 462.659H477.021ZM194.625 23.649L205.171 5.38457H214.724V-1.11113H201.403L187.107 23.649H194.625ZM227.721 23.649H233.987L226.104 9.9933H219.209V15.5602H223.048L227.721 23.649ZM279.322 -6.92494H285.589L277.706 -20.5806H270.81V-15.0137H274.649L279.322 -6.92494ZM239.307 23.649H246.797L232.5 -1.11113H219.209V5.38457H228.762L239.307 23.649ZM256.772 -25.1893H266.325V-31.685H253.004L238.708 -6.92494H246.226L256.772 -25.1893ZM176.208 -6.92494H182.474L174.591 -20.5806H167.696V-15.0137H171.535L176.208 -6.92494ZM-141.611 451.566V458.062H-132.059L-121.513 476.326H-114.024L-128.32 451.566H-141.611ZM153.652 -25.1893H163.205V-31.685H149.884L135.588 -6.92494H143.106L153.652 -25.1893ZM91.517 23.649L102.063 5.38457H111.615V-1.11113H98.2948L83.9984 23.649H91.517ZM84.6862 -6.92494H92.1754L77.8848 -31.685H64.5936V-25.1893H74.1461L84.692 -6.92494H84.6862ZM136.199 23.649H143.688L129.392 -1.11113H116.101V5.38457H125.653L136.199 23.649ZM124.613 23.649H130.879L122.996 9.9933H116.101V15.5602H119.939L124.613 23.649ZM462.977 -25.1893H472.53V-31.685H459.209L444.913 -6.92494H452.431L462.977 -25.1893ZM400.842 23.649L411.388 5.38457H420.94V-1.11113H407.62L393.323 23.649H400.842ZM394.011 -6.92494H401.5L387.204 -31.685H373.913V-25.1893H383.465L394.011 -6.92494ZM433.938 23.649H440.204L432.321 9.9933H425.426V15.5602H429.264L433.938 23.649ZM445.524 23.649H453.013L438.717 -1.11113H425.426V5.38457H434.978L445.524 23.649ZM73.1056 -6.92494H79.372L71.489 -20.5806H64.5936V-15.0137H68.4322L73.1056 -6.92494ZM342.428 23.649H349.917L335.62 -1.11113H322.329V5.38457H331.882L342.428 23.649ZM297.745 23.649L308.291 5.38457H317.844V-1.11113H304.523L290.227 23.649H297.745ZM382.431 -6.92494H388.697L380.814 -20.5806H373.919V-15.0137H377.757L382.431 -6.92494ZM330.841 23.649H337.108L329.225 9.9933H322.329V15.5602H326.168L330.841 23.649ZM359.875 -25.1893H369.427V-31.685H356.107L341.81 -6.92494H349.329L359.875 -25.1893ZM290.915 -6.92494H298.404L284.101 -31.685H270.81V-25.1893H280.363L290.909 -6.92494H290.915ZM187.8 -6.92494H195.29L180.987 -31.685H167.696V-25.1893H177.249L187.794 -6.92494H187.8ZM-166.195 234.704L-155.649 216.439H-146.097V209.943H-159.417L-173.714 234.704H-166.195ZM-155.649 277.428H-146.097V270.933H-159.417L-173.714 295.693H-166.195L-155.649 277.428ZM-155.649 156.62H-146.097V150.124H-159.417L-173.714 174.884H-166.195L-155.649 156.62ZM-166.195 113.895L-155.649 95.6308H-146.097V89.1351L-159.417 89.1292L-173.714 113.883L-166.195 113.889V113.895ZM-155.649 35.7998H-146.097V29.3041H-159.417L-173.714 54.0642H-166.195L-155.649 35.7998ZM-166.195 355.518L-155.649 337.253H-146.097V330.758L-159.417 330.752L-173.714 355.512L-166.195 355.518ZM-146.097 458.062V451.566H-159.417L-173.714 476.332H-166.195L-155.649 458.068H-146.097V458.062ZM-155.649 398.243H-146.097V391.747H-159.417L-173.714 416.507H-166.195L-155.649 398.243ZM-141.611 462.671V468.237H-137.773L-133.099 476.326H-126.833L-134.716 462.671H-141.611ZM-146.908 473.075L-150.082 478.572L-146.908 484.068H-140.559L-137.385 478.572L-140.559 473.075H-146.908ZM-146.097 468.237V462.671H-152.992L-160.881 476.326H-154.373L-149.7 468.237H-146.097ZM-155.649 -25.1893H-146.097V-31.685H-159.417L-173.714 -6.92494H-166.195L-155.649 -25.1893ZM-81.5863 23.649H-75.3198L-83.2029 9.9933H-90.0983V15.5602H-86.2597L-81.5863 23.649ZM-133.099 -6.92494H-126.833L-134.716 -20.5806H-141.611V-15.0137H-137.773L-133.099 -6.92494ZM-11.5796 23.649L-1.03365 5.38457H8.51888V-1.11113H-4.80174L-19.0982 23.649H-11.5796ZM-18.4104 -6.92494H-10.9212L-25.2235 -31.685H-38.5147V-25.1893H-28.9622L-18.4163 -6.92494H-18.4104ZM21.5162 23.649H27.7826L19.8996 9.9933H13.0042V15.5602H16.8428L21.5162 23.649ZM33.1026 23.649H40.5918L26.2953 -1.11113H13.0042V5.38457H22.5567L33.1026 23.649ZM-29.9969 -6.92494H-23.7304L-31.6134 -20.5806H-38.5089V-15.0137H-34.6702L-29.9969 -6.92494ZM-121.513 -6.92494H-114.024L-128.32 -31.685H-141.611V-25.1893H-132.059L-121.513 -6.92494ZM-114.682 23.649L-104.136 5.38457H-94.5836V-1.11113H-107.904L-122.201 23.649H-114.682ZM50.5558 -25.1893H60.1083V-31.685H46.7877L32.4913 -6.92494H40.0098L50.5558 -25.1893ZM-52.5467 -25.1893H-42.9941V-31.685H-56.3147L-70.6112 -6.92494H-63.0926L-52.5467 -25.1893ZM-69.9939 23.649H-62.5048L-76.8012 -1.11113H-90.0924V5.38457H-80.5399L-69.9939 23.649ZM79.3779 416.513L71.4949 402.857H64.5994V408.424H68.4381L73.1115 416.513H79.3779ZM40.5977 386.092L26.3012 361.332H13.01V367.827H22.5625L33.1085 386.092H40.5977ZM77.8907 387.185L92.0989 362.578H84.6098L74.152 380.689H66.8391V376.081H71.489L79.2839 362.572H73.1056L68.4322 370.661H56.4989L51.8255 362.572H45.4062L53.207 376.081H57.8568V380.689H50.544L40.0862 362.578H32.5677L46.7759 387.185H77.873H77.8907ZM102.075 367.827H111.627V361.332H98.3066L84.0102 386.092H91.5287L102.075 367.827ZM108.024 378.003H111.627V372.436H104.732L96.8428 386.092H103.35L108.024 378.003ZM14.0564 393.834L17.2308 388.337L14.0564 382.841H7.70764L4.53326 388.337L7.70764 393.834H14.0564ZM167.696 29.3041V35.7998H177.249L187.794 54.0642H195.284L180.987 29.3041H167.696ZM4.91537 378.003H8.51888V372.436H1.62343L-6.26547 386.092H0.242004L4.91537 378.003ZM205.171 367.827H214.724V361.332H201.403L187.107 386.092H194.625L205.171 367.827ZM180.987 387.185L195.195 362.578H187.706L177.249 380.689H169.936V376.081H174.586L182.38 362.572H176.202L171.529 370.661H159.595L154.922 362.572H148.503L156.304 376.081H160.953V380.689H153.641L143.183 362.578H135.664L149.873 387.185H180.97H180.987ZM143.694 386.092L129.398 361.332H116.107V367.827H125.659L136.205 386.092H143.694ZM117.153 393.834L120.327 388.337L117.153 382.841H110.804L107.63 388.337L110.804 393.834H117.153ZM130.885 386.092L123.002 372.436H116.107V378.003H119.945L124.619 386.092H130.885ZM-25.2235 387.185L-11.0153 362.578H-18.5044L-28.9622 380.689H-36.2751V376.081H-31.6252L-23.8303 362.572H-30.0086L-34.682 370.661H-46.6153L-51.2887 362.572H-57.7079L-49.9072 376.081H-45.2574V380.689H-52.5702L-63.028 362.578H-70.5465L-56.3383 387.185H-25.2412H-25.2235ZM-98.5751 267.517L-95.4007 273.014H-89.0519L-85.8776 267.517L-89.0519 262.021H-95.4007L-98.5751 267.517ZM-109.368 265.272H-102.86L-98.1871 257.183H-94.5836V251.616H-101.479L-109.368 265.272ZM-104.142 290.437L-114.6 272.326H-122.118L-107.91 296.933H-76.813L-62.6047 272.326H-70.0939L-80.5517 290.437H-87.8645V285.829H-83.2146L-75.4198 272.32H-81.598L-86.2714 280.409H-98.2047L-102.878 272.32H-109.297L-101.497 285.829H-96.8468V290.437H-104.16H-104.142ZM-104.142 228.049L-114.6 209.938H-122.118L-107.91 234.545H-76.813L-62.6047 209.938H-70.0939L-80.5517 228.049H-87.8645V223.44H-83.2146L-75.4198 209.932H-81.598L-86.2714 218.021H-98.2047L-102.878 209.932H-109.297L-101.497 223.44H-96.8468V228.049H-104.16H-104.142ZM-81.5922 326.261H-75.3257L-83.2087 312.605H-90.1042V318.172H-86.2655L-81.5922 326.261ZM-81.5922 265.272H-75.3257L-83.2087 251.616H-90.1042V257.183H-86.2655L-81.5922 265.272ZM-1.03952 367.822H8.51299V361.326H-4.80762L-19.104 386.086H-11.5855L-1.03952 367.822ZM-62.5165 386.086L-76.813 361.326H-90.1042V367.822H-80.5517L-70.0057 386.086H-62.5165ZM211.114 377.997H214.718V372.43H207.822L199.934 386.086H206.441L211.114 377.997ZM-109.368 326.261H-102.86L-98.1871 318.172H-94.5836V312.605H-101.479L-109.368 326.261ZM-104.142 348.858L-114.6 330.746H-122.118L-107.91 355.353H-76.813L-62.6047 330.746H-70.0939L-80.5517 348.858H-87.8645V344.249H-83.2146L-75.4198 330.74H-81.598L-86.2714 338.829H-98.2047L-102.878 330.74H-109.297L-101.497 344.249H-96.8468V348.858H-104.16H-104.142ZM-98.5751 328.5L-95.4007 333.997H-89.0519L-85.8776 328.5L-89.0519 323.004H-95.4007L-98.5751 328.5ZM453.007 386.086L438.711 361.326H425.42V367.822H434.972L445.518 386.086H453.007ZM514.484 367.822H524.037V361.326H510.716L496.42 386.086H503.938L514.484 367.822ZM220.25 393.828L223.424 388.331L220.25 382.835H213.901L210.726 388.331L213.901 393.828H220.25ZM490.3 387.179L504.509 362.572H497.02L486.562 380.684H479.249V376.075H483.899L491.694 362.566H485.515L480.842 370.655H468.909L464.235 362.566H457.816L465.617 376.075H470.267V380.684H462.954L452.496 362.572H444.977L459.186 387.179H490.283H490.3ZM520.433 377.997H524.037V372.43H517.141L509.253 386.086H515.76L520.433 377.997ZM440.198 386.086L432.315 372.43H425.42V377.997H429.258L433.932 386.086H440.198ZM-109.362 205.452H-102.855L-98.1812 197.364H-94.5777V191.797H-101.473L-109.362 205.452ZM556.122 386.092L541.825 361.332H528.534V367.827H538.086L548.633 386.092H556.122ZM587.013 341.856H580.118V347.423L583.956 347.429L588.63 355.518H594.896V355.512L587.013 341.856ZM607.617 300.184H600.128L589.67 318.295H582.357V313.687H587.007L594.802 300.178H588.624L583.95 308.267H572.017L567.344 300.178H560.924L568.725 313.687H573.375V318.295H566.062L555.604 300.184H548.086L562.294 324.791H593.391L607.599 300.184H607.617ZM426.472 393.834L429.646 388.337L426.472 382.841H420.123L416.949 388.337L420.123 393.834H426.472ZM543.307 386.092L535.424 372.436H528.528V378.003H532.367L537.04 386.092H543.307ZM593.403 387.185L607.611 362.578H600.122L589.664 380.689H582.351V376.081H587.001L594.796 362.572H588.618L583.944 370.661H572.011L567.338 362.572H560.918L568.719 376.081H573.369V380.689H566.056L555.598 362.578H548.08L562.288 387.185H593.385H593.403ZM529.574 393.834L532.749 388.337L529.574 382.841H523.226L520.051 388.337L523.226 393.834H529.574ZM308.28 367.827H317.832V361.332H304.511L290.215 386.092H297.734L308.28 367.827ZM314.229 378.003H317.832V372.436H310.937L303.048 386.092H309.555L314.229 378.003ZM284.096 387.185L298.304 362.578H290.815L280.357 380.689H273.044V376.081H277.694L285.489 362.572H279.31L274.637 370.661H262.704L258.03 362.572H251.611L259.412 376.081H264.062V380.689H256.749L246.291 362.578H238.773L252.981 387.185H284.078H284.096ZM233.982 386.092L226.099 372.436H219.203V378.003H223.042L227.715 386.092H233.982ZM246.791 386.092L232.494 361.332H219.203V367.827H228.756L239.302 386.092H246.791ZM417.331 378.003H420.935V372.436H414.039L406.15 386.092H412.658L417.331 378.003ZM387.198 387.185L401.406 362.578H393.917L383.459 380.689H376.146V376.081H380.796L388.591 362.572H382.413L377.74 370.661H365.806L361.133 362.572H354.714L362.514 376.081H367.164V380.689H359.851L349.394 362.578H341.875L356.083 387.185H387.18H387.198ZM411.382 367.827H420.935V361.332H407.614L393.318 386.092H400.836L411.382 367.827ZM323.37 393.834L326.544 388.337L323.37 382.841H317.021L313.846 388.337L317.021 393.834H323.37ZM349.911 386.092L335.614 361.332H322.323V367.827H331.876L342.422 386.092H349.911ZM337.102 386.092L329.219 372.436H322.323V378.003H326.162L330.835 386.092H337.102ZM528.528 119.703V126.199H538.081L548.627 144.463H556.116L541.819 119.703H528.528ZM528.528 240.512V247.007H538.081L548.627 265.272H556.116L541.819 240.512H528.528ZM361.151 355.518L365.824 347.429H369.427V341.862L362.532 341.856L354.643 355.512L361.151 355.518ZM528.528 301.501V307.996H538.081L548.627 326.261H556.116L541.819 301.501H528.528ZM464.253 355.518L468.926 347.429H472.53V341.862L465.634 341.856L457.745 355.512L464.253 355.518ZM438.717 355.359L452.925 330.752H445.436L434.978 348.863H427.665V344.255H432.315L440.11 330.746H433.932L429.258 338.835H417.325L412.652 330.746H406.232L414.033 344.255H418.683V348.863H411.37L400.912 330.752H393.394L407.602 355.359H438.699H438.717ZM452.431 355.518L462.977 337.253H472.53V330.758L459.209 330.752L444.913 355.512L452.431 355.518ZM-98.5692 207.698L-95.3948 213.194H-89.0461L-85.8717 207.698L-89.0461 202.202H-95.3948L-98.5692 207.698ZM477.015 100.234V105.795L480.854 105.801L485.527 113.889H491.794V113.883L483.911 100.228H477.015V100.234ZM444.913 113.883L452.431 113.889L462.977 95.6249H472.53V89.1292L459.209 89.1233L444.913 113.883ZM580.118 282.031V287.598H583.956L588.63 295.687H594.896L587.013 282.031H580.118ZM477.015 89.1233V95.619L486.568 95.6249L497.114 113.889H504.603V113.883L490.306 89.1233H477.015ZM528.528 180.692V187.188H538.081L548.627 205.452H556.116L541.819 180.692H528.528ZM51.8314 355.518L56.5048 347.429H60.1083V341.862L53.2129 341.856L45.3239 355.512L51.8314 355.518ZM373.913 89.1233V95.619L383.465 95.6249L394.011 113.889H401.5V113.883L387.204 89.1233H373.913ZM129.398 355.359L143.606 330.752H136.117L125.659 348.863H118.346V344.255H122.996L130.791 330.746H124.613L119.939 338.835H108.006L103.333 330.746H96.9134L104.714 344.255H109.364V348.863H102.051L91.5934 330.752H84.0748L98.2831 355.359H129.38H129.398ZM40.0098 355.518L50.5558 337.253H60.1083V330.758L46.7877 330.752L32.4913 355.512L40.0098 355.518ZM143.112 355.518L153.658 337.253H163.211V330.758L149.89 330.752L135.594 355.512L143.112 355.518ZM26.2953 355.359L40.5036 330.752H33.0145L22.5567 348.863H15.2438V344.255H19.8937L27.6886 330.746H21.5103L16.8369 338.835H4.90361L0.230225 330.746H-6.18904L1.61168 344.255H6.26154V348.863H-1.05127L-11.5091 330.752H-19.0276L-4.81937 355.359H26.2777H26.2953ZM349.329 355.518L359.875 337.253H369.427V330.758L356.107 330.752L341.81 355.512L349.329 355.518ZM335.62 355.359L349.829 330.752H342.339L331.882 348.863H324.569V344.255H329.219L337.014 330.746H330.835L326.162 338.835H314.229L309.555 330.746H303.136L310.937 344.255H315.586V348.863H308.274L297.816 330.752H290.297L304.506 355.359H335.603H335.62ZM258.054 355.518L262.727 347.429H266.331V341.862L259.435 341.856L251.546 355.512L258.054 355.518ZM246.232 355.518L256.778 337.253H266.331V330.758L253.01 330.752L238.714 355.512L246.232 355.518ZM232.506 355.359L246.714 330.752H239.225L228.767 348.863H221.455V344.255H226.104L233.899 330.746H227.721L223.048 338.835H211.114L206.441 330.746H200.022L207.822 344.255H212.472V348.863H205.159L194.702 330.752H187.183L201.391 355.359H232.488H232.506ZM154.94 355.518L159.613 347.429H163.217V341.862L156.321 341.856L148.432 355.512L154.94 355.518ZM541.825 355.359L556.033 330.752H548.544L538.086 348.863H530.774V344.255H535.424L543.218 330.746H537.04L532.367 338.835H520.433L515.76 330.746H509.341L517.141 344.255H521.791V348.863H514.479L504.021 330.752H496.502L510.711 355.359H541.808H541.825ZM-38.5089 100.234V105.795L-34.6702 105.801L-29.9969 113.889H-23.7304V113.883L-31.6134 100.228H-38.5089V100.234ZM373.913 100.234V105.795L377.751 105.801L382.425 113.889H388.691V113.883L380.808 100.228H373.913V100.234ZM-70.6112 113.883L-63.0926 113.889L-52.5467 95.6249H-42.9941V89.1292L-56.3147 89.1233L-70.6112 113.883ZM-46.9797 116.129V116.135L-43.8054 121.631H-37.4566L-34.2823 116.135V116.129L-37.4566 110.633H-43.8054L-46.9797 116.129ZM56.1227 116.129V116.135L59.2971 121.631H65.6458L68.8202 116.135V116.129L65.6458 110.633H59.2971L56.1227 116.129ZM32.4913 113.883L40.0098 113.889L50.5558 95.6249H60.1083V89.1292L46.7877 89.1233L32.4913 113.883ZM-81.5863 144.463H-75.3198L-83.2029 130.808H-90.0983V136.374H-86.2597L-81.5863 144.463ZM-81.5863 205.452H-75.3198L-83.2029 191.797H-90.0983V197.364H-86.2597L-81.5863 205.452ZM-104.136 169.629L-114.594 151.517H-122.112L-107.904 176.125H-76.8071L-62.5988 151.517H-70.088L-80.5458 169.629H-87.8586V165.02H-83.2087L-75.4139 151.512H-81.5922L-86.2655 159.6H-98.1988L-102.872 151.512H-109.291L-101.491 165.02H-96.8409V169.629H-104.154H-104.136ZM-109.362 144.463H-102.855L-98.1812 136.374H-94.5777V130.808H-101.473L-109.362 144.463ZM64.5936 100.234V105.795L68.4322 105.801L73.1056 113.889H79.372V113.883L71.489 100.228H64.5936V100.234ZM-98.5692 146.709L-95.3948 152.205H-89.0461L-85.8717 146.709L-89.0461 141.212H-95.3948L-98.5692 146.709ZM-38.5089 89.1233V95.619L-28.9564 95.6249L-18.4104 113.889H-10.9212V113.883L-25.2177 89.1233H-38.5089ZM64.5936 89.1233V95.619L74.1461 95.6249L84.692 113.889H92.1812V113.883L77.8848 89.1233H64.5936ZM270.81 100.234V105.795L274.649 105.801L279.322 113.889H285.589V113.883L277.706 100.228H270.81V100.234ZM262.339 116.129V116.135L265.514 121.631H271.862L275.037 116.135V116.129L271.862 110.633H265.514L262.339 116.129ZM365.442 116.129V116.135L368.616 121.631H374.965L378.139 116.135V116.129L374.965 110.633H368.616L365.442 116.129ZM341.81 113.883L349.329 113.889L359.875 95.6249H369.427V89.1292L356.107 89.1233L341.81 113.883ZM270.81 89.1233V95.619L280.363 95.6249L290.909 113.889H298.398V113.883L284.101 89.1233H270.81ZM135.594 113.883L143.112 113.889L153.658 95.6249H163.211V89.1292L149.89 89.1233L135.594 113.883ZM159.225 116.129V116.135L162.4 121.631H168.748L171.923 116.135V116.129L168.748 110.633H162.4L159.225 116.129ZM167.696 100.234V105.795L171.535 105.801L176.208 113.889H182.474V113.883L174.591 100.228H167.696V100.234ZM167.696 89.1233V95.619L177.249 95.6249L187.794 113.889H195.284V113.883L180.987 89.1233H167.696ZM238.714 113.883L246.232 113.889L256.778 95.6249H266.331V89.1292L253.01 89.1233L238.714 113.883ZM27.7885 386.092L19.9055 372.436H13.01V378.003H16.8487L21.522 386.092H27.7885ZM438.723 417.759L452.931 393.152H445.442L434.984 411.263H427.671V406.655H432.321L440.116 393.146H433.938L429.264 401.235H417.331L412.658 393.146H406.238L414.039 406.655H418.689V411.263H411.376L400.918 393.152H393.4L407.608 417.759H438.705H438.723ZM285.595 416.513L277.712 402.857H270.816V408.424H274.655L279.328 416.513H285.595ZM232.5 417.759L246.708 393.152H239.219L228.762 411.263H221.449V406.655H226.099L233.893 393.146H227.715L223.042 401.235H211.108L206.435 393.146H200.016L207.817 406.655H212.466V411.263H205.154L194.696 393.152H187.177L201.386 417.759H232.483H232.5ZM271.862 424.255L275.037 418.758L271.862 413.262H265.514L262.339 418.758L265.514 424.255H271.862ZM256.772 398.248H266.325V391.753H253.004L238.708 416.513H246.226L256.772 398.248ZM262.721 408.424H266.325V402.857H259.43L251.541 416.513H258.048L262.721 408.424ZM298.398 416.513L284.101 391.753H270.81V398.248H280.363L290.909 416.513H298.398ZM359.875 398.248H369.427V391.753H356.107L341.81 416.513H349.329L359.875 398.248ZM401.5 416.513L387.204 391.753H373.913V398.248H383.465L394.011 416.513H401.5ZM388.691 416.513L380.808 402.857H373.913V408.424H377.751L382.425 416.513H388.691ZM374.959 424.255L378.133 418.758L374.959 413.262H368.61L365.436 418.758L368.61 424.255H374.959ZM365.818 408.424H369.422V402.857H362.526L354.637 416.513H361.145L365.818 408.424ZM335.614 417.759L349.823 393.152H342.333L331.876 411.263H324.563V406.655H329.213L337.008 393.146H330.829L326.156 401.235H314.223L309.549 393.146H303.13L310.931 406.655H315.581V411.263H308.268L297.81 393.152H290.291L304.5 417.759H335.597H335.614ZM195.278 416.513L180.981 391.753H167.69V398.248H177.243L187.789 416.513H195.278ZM-10.9271 416.513L-25.2235 391.753H-38.5147V398.248H-28.9622L-18.4163 416.513H-10.9271ZM56.4989 408.424H60.1024V402.857H53.207L45.3181 416.513H51.8255L56.4989 408.424ZM-51.2769 355.524L-46.6035 347.435H-43V341.868L-49.8955 341.862L-57.7844 355.518L-51.2769 355.524ZM50.5499 398.248H60.1024V391.753H46.7818L32.4854 416.513H40.0039L50.5499 398.248ZM26.2895 417.759L40.4977 393.152H33.0086L22.5508 411.263H15.238V406.655H19.8878L27.6827 393.146H21.5044L16.831 401.235H4.89774L0.224365 393.146H-6.19493L1.60579 406.655H6.25566V411.263H-1.05716L-11.5149 393.152H-19.0335L-4.82526 417.759H26.2719H26.2895ZM65.64 424.255L68.8143 418.758L65.64 413.262H59.2912L56.1168 418.758L59.2912 424.255H65.64ZM182.474 416.513L174.591 402.857H167.696V408.424H171.535L176.208 416.513H182.474ZM168.742 424.255L171.917 418.758L168.742 413.262H162.394L159.219 418.758L162.394 424.255H168.742ZM159.601 408.424H163.205V402.857H156.309L148.421 416.513H154.928L159.601 408.424ZM607.611 241.764H600.122L589.664 259.875H582.351V255.266H587.001L594.796 241.758H588.618L583.944 249.847H572.011L567.338 241.758H560.918L568.719 255.266H573.369V259.875H566.056L555.598 241.764H548.08L562.288 266.371H593.385L607.594 241.764H607.611ZM153.652 398.248H163.205V391.753H149.884L135.588 416.513H143.106L153.652 398.248ZM92.1754 416.513L77.8789 391.753H64.5877V398.248H74.1402L84.6862 416.513H92.1754ZM580.118 29.3041V35.7998H589.67L600.216 54.0642H607.705L593.409 29.3041H580.118ZM580.118 270.933V277.428H589.67L600.216 295.693H607.705L593.409 270.933H580.118ZM593.409 89.1233H580.118V95.619L589.67 95.6249L600.216 113.889H607.705V113.883L593.409 89.1233ZM555.534 54.0642L566.08 35.7998H575.632V29.3041H562.312L548.015 54.0642H555.534ZM580.118 150.118V156.614H589.67L600.216 174.878H607.705L593.409 150.118H580.118ZM580.118 209.938V216.433H589.67L600.216 234.698H607.705L593.409 209.938H580.118ZM477.015 29.2982V35.7939H486.568L497.114 54.0583H504.603L490.306 29.2982H477.015ZM452.431 54.0583L462.977 35.7939H472.53V29.2982H459.209L444.913 54.0583H452.431ZM246.226 54.0583L256.772 35.7939H266.325V29.2982H253.004L238.708 54.0583H246.226ZM270.81 29.2982V35.7939H280.363L290.909 54.0583H298.398L284.101 29.2982H270.81ZM373.913 29.2982V35.7939H383.465L394.011 54.0583H401.5L387.204 29.2982H373.913ZM349.329 54.0583L359.875 35.7939H369.427V29.2982H356.107L341.81 54.0583H349.329ZM462.977 398.237H472.53V391.741H459.209L444.913 416.501H452.431L462.977 398.237ZM491.794 416.501L483.911 402.845H477.015V408.412H480.854L485.527 416.501H491.794ZM541.819 417.747L556.028 393.14H548.538L538.081 411.252H530.768V406.643H535.418L543.213 393.134H537.034L532.361 401.223H520.428L515.754 393.134H509.335L517.136 406.643H521.786V411.252H514.473L504.015 393.14H496.496L510.705 417.747H541.802H541.819ZM504.603 416.501L490.306 391.741H477.015V398.237H486.568L497.114 416.501H504.603ZM478.061 424.243L481.236 418.747L478.061 413.25H471.713L468.538 418.747L471.713 424.243H478.061ZM468.92 408.412H472.524V402.845H465.628L457.74 416.501H464.247L468.92 408.412ZM572.023 408.412H575.626V402.845H568.731L560.842 416.501H567.35L572.023 408.412ZM607.699 416.501L593.403 391.741H580.112V398.237H589.664L600.21 416.501H607.699ZM594.89 416.501L587.007 402.845H580.112V408.412H583.95L588.624 416.501H594.89ZM581.158 424.243L584.332 418.747L581.158 413.25H574.809L571.635 418.747L574.809 424.243H581.158ZM566.068 398.237H575.62V391.741H562.3L548.003 416.501H555.522L566.068 398.237ZM593.397 330.74H580.106V337.236L589.658 337.242L600.204 355.506H607.693V355.5L593.397 330.74ZM129.386 417.747L143.594 393.14H136.105L125.647 411.252H118.335V406.643H122.984L130.779 393.134H124.601L119.928 401.223H107.994L103.321 393.134H96.9016L104.702 406.643H109.352V411.252H102.039L91.5816 393.14H84.063L98.2713 417.747H129.368H129.386ZM322.323 76.5493H326.162L330.835 84.6381H337.102L329.219 70.9824H322.323V76.5493ZM313.852 86.8836L317.027 92.38H323.375L326.55 86.8836L323.375 81.3873H317.027L313.852 86.8836ZM290.221 84.6381H297.739L308.285 66.3737H317.838V59.878H304.517L290.221 84.6381ZM393.323 84.6381H400.842L411.388 66.3737H420.94V59.878H407.62L393.323 84.6381ZM322.323 59.878V66.3737H331.876L342.422 84.6381H349.911L335.614 59.878H322.323ZM219.209 59.878V66.3737H228.762L239.307 84.6381H246.797L232.5 59.878H219.209ZM116.107 59.878V66.3737H125.659L136.205 84.6381H143.694L129.398 59.878H116.107ZM416.955 86.8836L420.129 92.38H426.478L429.652 86.8836L426.478 81.3873H420.129L416.955 86.8836ZM219.209 76.5493H223.048L227.721 84.6381H233.987L226.104 70.9824H219.209V76.5493ZM116.107 76.5493H119.945L124.619 84.6381H130.885L123.002 70.9824H116.107V76.5493ZM187.107 84.6381H194.625L205.171 66.3737H214.724V59.878H201.403L187.107 84.6381ZM210.738 86.8836L213.913 92.38H220.261L223.436 86.8836L220.261 81.3873H213.913L210.738 86.8836ZM587.013 221.048H580.118V226.615H583.956L588.63 234.704H594.896L587.013 221.048ZM587.013 100.234H580.118V105.801L583.956 105.806L588.63 113.895H594.896V113.889L587.013 100.234ZM607.617 120.955H600.128L589.67 139.067H582.357V134.458H587.007L594.802 120.949H588.624L583.95 129.038H572.017L567.344 120.949H560.924L568.725 134.458H573.375V139.067H566.062L555.604 120.955H548.086L562.294 145.563H593.391L607.599 120.955H607.617ZM580.118 161.229V166.796H583.956L588.63 174.884H594.896L587.013 161.229H580.118ZM107.636 86.8836L110.81 92.38H117.159L120.333 86.8836L117.159 81.3873H110.81L107.636 86.8836ZM607.617 179.375H600.128L589.67 197.487H582.357V192.878H587.007L594.802 179.37H588.624L583.95 187.458H572.017L567.344 179.37H560.924L568.725 192.878H573.375V197.487H566.062L555.604 179.375H548.086L562.294 203.983H593.391L607.599 179.375H607.617ZM496.432 84.644H503.95L514.496 66.3796H524.049V59.8839H510.728L496.432 84.644ZM425.426 76.5552H429.264L433.938 84.644H440.204L432.321 70.9883H425.426V76.5552ZM425.426 59.8839V66.3796H434.978L445.524 84.644H453.013L438.717 59.8839H425.426ZM520.057 86.8895L523.232 92.3859H529.58L532.755 86.8895L529.58 81.3932H523.232L520.057 86.8895ZM528.528 76.5552H532.367L537.04 84.644H543.307L535.424 70.9883H528.528V76.5552ZM528.528 59.8839V66.3796H538.081L548.627 84.644H556.116L541.819 59.8839H528.528ZM-114.682 205.452L-104.136 187.188H-94.5836V180.692H-107.904L-122.201 205.452H-114.682ZM-114.682 326.261L-104.136 307.996H-94.5836V301.501H-107.904L-122.201 326.261H-114.682ZM-141.611 330.746V337.242L-132.059 337.248L-121.513 355.512H-114.024V355.506L-128.32 330.746H-141.611ZM-141.611 270.927V277.422H-132.059L-121.513 295.687H-114.024L-128.32 270.927H-141.611ZM-114.682 265.272L-104.136 247.007H-94.5836V240.512H-107.904L-122.201 265.272H-114.682ZM-23.7304 416.507L-31.6134 402.851H-38.5089V408.418H-34.6702L-29.9969 416.507H-23.7304ZM-141.611 209.943V216.439H-132.059L-121.513 234.704H-114.024L-128.32 209.943H-141.611ZM-114.682 386.092L-104.136 367.827H-94.5836V361.332H-107.904L-122.201 386.092H-114.682ZM-46.5976 408.418H-42.9941V402.851H-49.8896L-57.7785 416.507H-51.271L-46.5976 408.418ZM-76.8012 417.753L-62.5929 393.146H-70.0821L-80.5399 411.258H-87.8527V406.649H-83.2029L-75.408 393.14H-81.5863L-86.2597 401.229H-98.1929L-102.866 393.14H-109.286L-101.485 406.649H-96.835V411.258H-104.148L-114.606 393.146H-122.124L-107.916 417.753H-76.8188H-76.8012ZM-37.4566 424.249L-34.2823 418.753L-37.4566 413.256H-43.8054L-46.9797 418.753L-43.8054 424.249H-37.4566ZM-52.5467 398.243H-42.9941V391.747H-56.3147L-70.6112 416.507H-63.0926L-52.5467 398.243ZM-141.611 391.747V398.243H-132.059L-121.513 416.507H-114.024L-128.32 391.747H-141.611ZM-141.611 150.118V156.614H-132.059L-121.513 174.878H-114.024L-128.32 150.118H-141.611ZM-90.0983 59.8721V66.3678H-80.5458L-69.9998 84.6322H-62.5107L-76.8071 59.8721H-90.0983ZM-19.0982 84.6322H-11.5796L-1.03365 66.3678H8.51888V59.8721H-4.80174L-19.0982 84.6322ZM4.53326 86.8778L7.70764 92.3741H14.0564L17.2308 86.8778L14.0564 81.3814H7.70764L4.53326 86.8778ZM13.0042 76.5434H16.8428L21.5162 84.6322H27.7826L19.8996 70.9765H13.0042V76.5434ZM13.0042 59.8721V66.3678H22.5567L33.1026 84.6322H40.5918L26.2953 59.8721H13.0042ZM-90.0983 76.5434H-86.2597L-81.5863 84.6322H-75.3198L-83.2029 70.9765H-90.0983V76.5434ZM84.0043 84.6322H91.5228L102.069 66.3678H111.621V59.8721H98.3007L84.0043 84.6322ZM-114.682 144.457L-104.136 126.193H-94.5836V119.697H-107.904L-122.201 144.457H-114.682ZM-141.611 89.1175V95.6132L-132.059 95.619L-121.513 113.883H-114.024V113.878L-128.32 89.1175H-141.611ZM-98.5692 86.8719L-95.3948 92.3683H-89.0461L-85.8717 86.8719L-89.0461 81.3755H-95.3948L-98.5692 86.8719ZM-122.201 84.6263H-114.682L-104.136 66.3619H-94.5836V59.8662H-107.904L-122.201 84.6263Z" fill="url(#paint0_linear_2851_547)"/>
<defs>
<linearGradient id="paint0_linear_2851_547" x1="-173.714" y1="226.192" x2="659.218" y2="226.192" gradientUnits="userSpaceOnUse">
<stop stop-color="white" stop-opacity="0.5"/>
<stop offset="0.27" stop-color="white" stop-opacity="0.35"/>
<stop offset="0.77" stop-color="white" stop-opacity="0.1"/>
<stop offset="1" stop-color="white" stop-opacity="0"/>
</linearGradient>
</defs>
</svg>
